<?xml version="1.0" encoding="UTF-8"?>
<svg version="1.1" xmlns="http://www.w3.org/2000/svg" width="414" height="386">
<path d="M0 0 C1.15878159 0.00273422 1.15878159 0.00273422 2.3409729 0.00552368 C19.72776354 0.07461981 35.41473722 2.3594511 51.8125 8.3125 C52.83875488 8.6835083 52.83875488 8.6835083 53.88574219 9.06201172 C69.20321582 14.71818592 83.52535154 22.4734037 95.8125 33.3125 C97.03646484 34.37404297 97.03646484 34.37404297 98.28515625 35.45703125 C127.42931165 61.17776191 146.62956956 94.29797554 150.8125 133.3125 C151.16269054 139.03673099 151.15373428 144.76727985 151.125 150.5 C151.12284485 151.27351807 151.1206897 152.04703613 151.11846924 152.84399414 C151.06762529 164.21305364 150.78675784 175.27964693 147.8125 186.3125 C147.50650879 187.45380371 147.50650879 187.45380371 147.19433594 188.61816406 C136.16213112 228.42724083 110.95763099 262.47214977 74.875 283.125 C51.70623818 295.85564875 26.98886755 301.7571444 0.625 301.625 C-0.14851807 301.62284485 -0.92203613 301.6206897 -1.71899414 301.61846924 C-13.08805364 301.56762529 -24.15464693 301.28675784 -35.1875 298.3125 C-36.32880371 298.00650879 -36.32880371 298.00650879 -37.49316406 297.69433594 C-77.30224083 286.66213112 -111.34714977 261.45763099 -132 225.375 C-144.73150452 202.20468075 -150.6290166 177.48998466 -150.5 151.125 C-150.49817719 150.35247894 -150.49635437 149.57995789 -150.49447632 148.7840271 C-150.42538019 131.39723646 -148.1405489 115.71026278 -142.1875 99.3125 C-141.8164917 98.28624512 -141.8164917 98.28624512 -141.43798828 97.23925781 C-127.43358896 59.31397303 -98.37103857 29.27649776 -61.859375 12.23828125 C-42.1231705 3.49677968 -21.4794151 -0.10510915 0 0 Z M-97.1875 50.3125 C-97.99832031 51.05886719 -98.80914062 51.80523437 -99.64453125 52.57421875 C-125.8668081 77.55764787 -139.17441562 113.44545359 -140.1875 149.1953125 C-140.58882548 186.70491209 -125.77626438 221.24159254 -100.1875 248.3125 C-99.44113281 249.12332031 -98.69476563 249.93414062 -97.92578125 250.76953125 C-72.94235213 276.9918081 -37.05454641 290.29941562 -1.3046875 291.3125 C36.20491209 291.71382548 70.74159254 276.90126438 97.8125 251.3125 C98.62332031 250.56613281 99.43414062 249.81976563 100.26953125 249.05078125 C126.4918081 224.06735213 139.79941562 188.17954641 140.8125 152.4296875 C141.21382548 114.92008791 126.40126438 80.38340746 100.8125 53.3125 C100.06613281 52.50167969 99.31976563 51.69085938 98.55078125 50.85546875 C73.56735213 24.6331919 37.67954641 11.32558438 1.9296875 10.3125 C-35.57991209 9.91117452 -70.11659254 24.72373562 -97.1875 50.3125 Z " fill="#106032" transform="translate(202.1875,48.6875)"/>
<path d="M0 0 C7.15245272 4.22968965 10.59644103 10.24023957 12.9921875 18.01953125 C13.4375 20 13.4375 20 13.4375 23 C14.25992188 22.95359375 15.08234375 22.9071875 15.9296875 22.859375 C26.66131685 22.51239391 33.53039475 24.23060259 41.75 31.25 C48.5177092 37.72022748 52.96489218 44.43861495 53.7734375 53.953125 C54.03153983 66.21865802 52.09056695 75.75016981 43.4375 85 C34.31630063 93.19236033 25.44498438 95.20983953 13.4375 95 C13.36273438 95.6290625 13.28796875 96.258125 13.2109375 96.90625 C12.01169369 104.71309203 9.41200734 109.83830352 3.18359375 114.79296875 C-4.05888858 119.81617314 -9.79181675 120.64651768 -18.5625 120 C-25.79092196 118.61040918 -31.80054281 114.05140119 -35.91796875 108.01171875 C-38.21828768 103.73495251 -39.16084951 99.81980587 -39.5625 95 C-40.47128906 95.05220703 -40.47128906 95.05220703 -41.3984375 95.10546875 C-51.96402144 95.44681839 -60.3448514 92.71922899 -68.5625 86 C-75.427869 79.48630914 -79.60823491 71.44085807 -79.90649414 61.94506836 C-80.05574455 50.47629077 -78.43072966 41.77525726 -70.375 33.0625 C-63.31851513 26.54973089 -55.47295952 22.8424707 -45.875 22.9375 C-44.10576172 22.95103516 -44.10576172 22.95103516 -42.30078125 22.96484375 C-41.39714844 22.97644531 -40.49351562 22.98804688 -39.5625 23 C-39.48773438 22.38253906 -39.41296875 21.76507813 -39.3359375 21.12890625 C-38.15806985 13.54205284 -35.65989668 7.24538603 -29.49609375 2.36328125 C-20.85878452 -3.18813849 -9.49108334 -4.31149823 0 0 Z M-32.15234375 11.05859375 C-35.77565516 16.04691999 -35.76527298 20.01819705 -35.5625 26 C-36.31273437 25.96519531 -37.06296875 25.93039063 -37.8359375 25.89453125 C-48.95792946 25.60037277 -57.95251295 27.6387897 -66.5625 35 C-69.64344302 38.41751662 -72.1016643 41.6174929 -73.5625 46 C-72.58410156 46.14695312 -72.58410156 46.14695312 -71.5859375 46.296875 C-66.06823312 47.24090702 -61.87435793 48.20145849 -57.5625 52 C-56.2425 54.31 -54.9225 56.62 -53.5625 59 C-43.3325 59 -33.1025 59 -22.5625 59 C-22.5625 50.09 -22.5625 41.18 -22.5625 32 C-20.5825 32 -18.6025 32 -16.5625 32 C-16.5625 35.96 -16.5625 39.92 -16.5625 44 C-14.2525 44 -11.9425 44 -9.5625 44 C-9.5625 40.04 -9.5625 36.08 -9.5625 32 C-7.5825 32 -5.6025 32 -3.5625 32 C-3.5625 40.91 -3.5625 49.82 -3.5625 59 C0.76511014 59.18426252 5.07905323 59.34314836 9.4074707 59.43945312 C10.87734127 59.47958611 12.34689433 59.53411158 13.81567383 59.60351562 C22.16159111 60.37234615 22.16159111 60.37234615 29.42504883 57.26928711 C30.76304265 55.17876123 30.76304265 55.17876123 31.57617188 52.97045898 C32.84034702 50.0784075 34.77629373 49.04935313 37.5234375 47.67578125 C40.80778073 46.51620701 43.97001384 46.24333236 47.4375 46 C43.55218381 36.77237405 37.82218674 31.59867998 28.61328125 27.7265625 C24.06325699 26.20716481 19.91154699 25.88490058 15.125 25.9375 C14.05636719 25.94652344 12.98773438 25.95554688 11.88671875 25.96484375 C11.07847656 25.97644531 10.27023438 25.98804688 9.4375 26 C9.52 24.845 9.6025 23.69 9.6875 22.5 C9.64570452 16.57549044 7.60964184 12.30818413 3.56640625 8.01171875 C-2.5669825 2.41166815 -7.46100306 0.49419202 -15.78515625 0.6953125 C-23.16194427 1.50458038 -27.6002757 5.42813144 -32.15234375 11.05859375 Z M-16.5625 47 C-16.5625 52.61 -16.5625 58.22 -16.5625 64 C-14.2525 64 -11.9425 64 -9.5625 64 C-9.5625 58.39 -9.5625 52.78 -9.5625 47 C-13.42188975 45.65486576 -13.42188975 45.65486576 -16.5625 47 Z M-52.5625 63 C-52.5625 63.33 -52.5625 63.66 -52.5625 64 C-42.6625 64 -32.7625 64 -22.5625 64 C-22.5625 63.67 -22.5625 63.34 -22.5625 63 C-32.4625 63 -42.3625 63 -52.5625 63 Z M-3.5625 63 C-3.5625 63.33 -3.5625 63.66 -3.5625 64 C6.3375 64 16.2375 64 26.4375 64 C26.4375 63.67 26.4375 63.34 26.4375 63 C16.5375 63 6.6375 63 -3.5625 63 Z M-46.5625 67 C-45.0775 67.99 -45.0775 67.99 -43.5625 69 C-42.9025 68.34 -42.2425 67.68 -41.5625 67 C-43.2125 67 -44.8625 67 -46.5625 67 Z M-31.5625 67 C-31.088125 67.7425 -30.61375 68.485 -30.125 69.25 C-28.78380673 71.61050015 -28.050188 73.36648477 -27.5625 76 C-26.9025 76 -26.2425 76 -25.5625 76 C-25.5625 74.02 -25.5625 72.04 -25.5625 70 C-24.5725 70 -23.5825 70 -22.5625 70 C-22.5625 69.01 -22.5625 68.02 -22.5625 67 C-25.5325 67 -28.5025 67 -31.5625 67 Z M-16.5625 67 C-16.5625 67.99 -16.5625 68.98 -16.5625 70 C-14.2525 70 -11.9425 70 -9.5625 70 C-9.5625 69.01 -9.5625 68.02 -9.5625 67 C-11.8725 67 -14.1825 67 -16.5625 67 Z M-3.5625 67 C-3.5625 67.99 -3.5625 68.98 -3.5625 70 C-2.5725 70 -1.5825 70 -0.5625 70 C-0.5625 71.98 -0.5625 73.96 -0.5625 76 C0.0975 76 0.7575 76 1.4375 76 C2.1490625 74.329375 2.1490625 74.329375 2.875 72.625 C3.69056463 70.73289006 4.51606355 68.84287291 5.4375 67 C2.4675 67 -0.5025 67 -3.5625 67 Z M15.4375 67 C15.7675 67.66 16.0975 68.32 16.4375 69 C17.7575 68.34 19.0775 67.68 20.4375 67 C18.7875 67 17.1375 67 15.4375 67 Z M-39.5625 70 C-40.72207207 73.47871621 -40.33706651 74.34219645 -39.125 77.6875 C-38.83753906 78.49574219 -38.55007812 79.30398437 -38.25390625 80.13671875 C-38.02574219 80.75160156 -37.79757813 81.36648437 -37.5625 82 C-35.5825 82 -33.6025 82 -31.5625 82 C-31.50854522 80.37536158 -31.46972805 78.75021459 -31.4375 77.125 C-31.40269531 75.76761719 -31.40269531 75.76761719 -31.3671875 74.3828125 C-31.31925164 71.81193006 -31.31925164 71.81193006 -33.5625 70 C-36.64597826 69.83318891 -36.64597826 69.83318891 -39.5625 70 Z M5.5625 72.0625 C4.22985342 75.54218828 4.22007119 78.30371031 4.4375 82 C6.7475 82 9.0575 82 11.4375 82 C12.4275 78.37 13.4175 74.74 14.4375 71 C13.32953039 69.68879347 13.32953039 69.68879347 10.5625 69.625 C7.32910844 69.66720035 7.32910844 69.66720035 5.5625 72.0625 Z M-18.5625 76 C-18.5625 77.65 -18.5625 79.3 -18.5625 81 C-17.5725 80.34 -16.5825 79.68 -15.5625 79 C-15.8925 78.01 -16.2225 77.02 -16.5625 76 C-17.2225 76 -17.8825 76 -18.5625 76 Z M-9.5625 76 C-9.8925 77.32 -10.2225 78.64 -10.5625 80 C-9.5725 80.33 -8.5825 80.66 -7.5625 81 C-7.5625 79.35 -7.5625 77.7 -7.5625 76 C-8.2225 76 -8.8825 76 -9.5625 76 Z M-27.5625 79 C-27.5625 85.6 -27.5625 92.2 -27.5625 99 C-26.9025 99 -26.2425 99 -25.5625 99 C-25.5625 92.4 -25.5625 85.8 -25.5625 79 C-26.2225 79 -26.8825 79 -27.5625 79 Z M-0.5625 79 C-0.5625 85.6 -0.5625 92.2 -0.5625 99 C0.0975 99 0.7575 99 1.4375 99 C1.4375 92.4 1.4375 85.8 1.4375 79 C0.7775 79 0.1175 79 -0.5625 79 Z M-16.734375 83.578125 C-19.16046821 86.79218011 -18.97165388 88.77115308 -18.8125 92.75 C-18.77640625 93.92046875 -18.7403125 95.0909375 -18.703125 96.296875 C-18.65671875 97.18890625 -18.6103125 98.0809375 -18.5625 99 C-14.9325 99 -11.3025 99 -7.5625 99 C-7.45455723 96.73020335 -7.37693824 94.45894804 -7.3125 92.1875 C-7.24289063 90.29064453 -7.24289063 90.29064453 -7.171875 88.35546875 C-7.22884662 84.96826298 -7.22884662 84.96826298 -9.390625 83.05078125 C-12.51397897 81.53966215 -13.91079987 81.52646249 -16.734375 83.578125 Z M-34.5625 85 C-34.2325 89.62 -33.9025 94.24 -33.5625 99 C-32.9025 99 -32.2425 99 -31.5625 99 C-31.5625 94.38 -31.5625 89.76 -31.5625 85 C-32.5525 85 -33.5425 85 -34.5625 85 Z M4.4375 85 C4.4375 89.62 4.4375 94.24 4.4375 99 C5.4275 99 6.4175 99 7.4375 99 C7.7675 94.38 8.0975 89.76 8.4375 85 C7.1175 85 5.7975 85 4.4375 85 Z M-34.5625 102 C-30.22604849 109.58879015 -27.04486623 113.12555594 -19.125 116.4375 C-11.61673518 117.6230155 -4.83987764 116.41790233 1.4375 112 C4.63350239 108.94990206 7.03211769 106.21614693 8.4375 102 C-5.7525 102 -19.9425 102 -34.5625 102 Z " fill="#116132" transform="translate(215.5625,146)"/>
<path d="M0 0 C1.19544434 0.33064453 1.19544434 0.33064453 2.41503906 0.66796875 C29.10106276 8.26670092 54.50980624 23.09309064 72 45 C72.39944824 45.49822266 72.79889648 45.99644531 73.21044922 46.50976562 C85.98795735 62.63680963 94.52096778 80.19057503 100 100 C100.28810547 101.01368652 100.28810547 101.01368652 100.58203125 102.04785156 C105.80407607 121.4112735 105.46916174 147.75699301 100 167 C99.77957031 167.79696289 99.55914062 168.59392578 99.33203125 169.41503906 C91.73329908 196.10106276 76.90690936 221.50980624 55 239 C54.50177734 239.39944824 54.00355469 239.79889648 53.49023438 240.21044922 C37.36319037 252.98795735 19.80942497 261.52096778 0 267 C-0.67579102 267.19207031 -1.35158203 267.38414062 -2.04785156 267.58203125 C-21.4112735 272.80407607 -47.75699301 272.46916174 -67 267 C-67.79696289 266.77957031 -68.59392578 266.55914062 -69.41503906 266.33203125 C-96.10106276 258.73329908 -121.50980624 243.90690936 -139 222 C-139.39944824 221.50177734 -139.79889648 221.00355469 -140.21044922 220.49023438 C-152.98795735 204.36319037 -161.52096778 186.80942497 -167 167 C-167.19207031 166.32420898 -167.38414062 165.64841797 -167.58203125 164.95214844 C-172.80407607 145.5887265 -172.46916174 119.24300699 -167 100 C-166.66935547 98.80455566 -166.66935547 98.80455566 -166.33203125 97.58496094 C-158.73329908 70.89893724 -143.90690936 45.49019376 -122 28 C-121.25266602 27.40082764 -121.25266602 27.40082764 -120.49023438 26.78955078 C-104.36319037 14.01204265 -86.80942497 5.47903222 -67 0 C-66.32420898 -0.19207031 -65.64841797 -0.38414063 -64.95214844 -0.58203125 C-45.5887265 -5.80407607 -19.24300699 -5.46916174 0 0 Z M-135.05517578 46.80517578 C-144.01072628 56.91192936 -150.57204163 68.69541542 -156 81 C-156.28214355 81.63873047 -156.56428711 82.27746094 -156.85498047 82.93554688 C-162.93364266 97.04864589 -166.42622486 112.63280497 -167 128 C-167.03996094 128.8146875 -167.07992187 129.629375 -167.12109375 130.46875 C-168.00682774 165.06447761 -154.5609925 198.97834448 -131.14453125 224.20703125 C-117.91777671 238.07711641 -103.51930651 248.27165568 -86 256 C-85.36126953 256.28214355 -84.72253906 256.56428711 -84.06445312 256.85498047 C-69.95135411 262.93364266 -54.36719503 266.42622486 -39 267 C-38.1853125 267.03996094 -37.370625 267.07992188 -36.53125 267.12109375 C-1.93552239 268.00682774 31.97834448 254.5609925 57.20703125 231.14453125 C71.07711641 217.91777671 81.27165568 203.51930651 89 186 C89.28214355 185.36126953 89.56428711 184.72253906 89.85498047 184.06445312 C95.93364266 169.95135411 99.42622486 154.36719503 100 139 C100.03996094 138.1853125 100.07992188 137.370625 100.12109375 136.53125 C101.00682774 101.93552239 87.5609925 68.02165552 64.14453125 42.79296875 C50.91777671 28.92288359 36.51930651 18.72834432 19 11 C18.36126953 10.71785645 17.72253906 10.43571289 17.06445312 10.14501953 C2.95135411 4.06635734 -12.63280497 0.57377514 -28 0 C-28.8146875 -0.03996094 -29.629375 -0.07992187 -30.46875 -0.12109375 C-71.31967787 -1.16697594 -107.69772231 17.3951115 -135.05517578 46.80517578 Z " fill="#2A6E47" transform="translate(236,66)"/>
<path d="M0 0 C5.91416853 4.39999888 10.19144154 9.51937382 13.15625 16.3046875 C13.15625 17.2946875 13.15625 18.2846875 13.15625 19.3046875 C14.39375 19.3665625 15.63125 19.4284375 16.90625 19.4921875 C29.06631611 20.88791836 39.35267852 27.36731985 46.96875 36.7421875 C55.02481733 47.76333516 57.32953109 58.67996083 56.15625 72.3046875 C54.50202408 80.6604082 51.53929703 87.70165084 46.15625 94.3046875 C45.60453125 94.99175781 45.0528125 95.67882812 44.484375 96.38671875 C38.50674462 103.06684842 29.07124337 108.76761968 20.15625 110.3046875 C17.82324067 110.34357099 15.48915199 110.349551 13.15625 110.3046875 C13.04539062 111.03816406 12.93453125 111.77164063 12.8203125 112.52734375 C11.04988391 119.93190096 5.30668531 126.07545735 -0.84375 130.3046875 C-10.09075079 135.71756601 -20.24646847 137.07975328 -30.76953125 134.62109375 C-40.72340846 130.89032484 -47.79794278 124.44594453 -53.0078125 115.25 C-53.84375 113.3046875 -53.84375 113.3046875 -53.84375 110.3046875 C-54.771875 110.3871875 -55.7 110.4696875 -56.65625 110.5546875 C-67.53275965 110.51074201 -77.30224512 103.7353321 -85.03125 96.6796875 C-94.40964905 86.9081819 -97.31772933 74.93872823 -97.09375 61.8359375 C-96.17643729 48.8788955 -90.27187132 38.10205423 -80.84375 29.3046875 C-73.26885345 23.46786653 -63.47257074 19.3046875 -53.84375 19.3046875 C-53.73933594 18.58023438 -53.63492188 17.85578125 -53.52734375 17.109375 C-51.57352626 9.09314097 -45.25558691 3.04490958 -38.51953125 -1.2890625 C-25.99528889 -7.87114608 -12.15340855 -7.24530125 0 0 Z M-42.84375 12.3046875 C-45.76265457 16.97493481 -47.84375 20.73820946 -47.84375 26.3046875 C-48.59398437 26.33046875 -49.34421875 26.35625 -50.1171875 26.3828125 C-62.7563665 27.0832204 -72.32187068 31.22877641 -81.03125 40.4921875 C-85.71911517 46.25595615 -89.34661923 53.84772596 -89.84375 61.3046875 C-89.9984375 63.068125 -89.9984375 63.068125 -90.15625 64.8671875 C-89.92781697 75.74890648 -85.12149682 85.43125321 -77.84375 93.3046875 C-69.92930091 100.26244494 -60.14364985 103.90250585 -49.64453125 103.4453125 C-49.05027344 103.39890625 -48.45601562 103.3525 -47.84375 103.3046875 C-47.781875 104.2946875 -47.72 105.2846875 -47.65625 106.3046875 C-46.54942365 113.72341545 -41.64860341 119.19593836 -36.01171875 123.828125 C-29.99900839 127.92326828 -23.02060801 129.36792572 -15.84375 128.3046875 C-7.64785841 126.15996821 -0.81970517 122.00394518 3.76171875 114.76953125 C5.94014517 110.62624963 7.15625 108.05889446 7.15625 103.3046875 C7.75050781 103.35109375 8.34476562 103.3975 8.95703125 103.4453125 C18.44819449 103.85861354 26.58225665 101.0753491 34.15625 95.3046875 C34.960625 94.70785156 35.765 94.11101562 36.59375 93.49609375 C44.34179809 86.87009531 48.27754314 77.11384037 49.3984375 67.15234375 C49.79298779 56.0830161 45.42328214 45.60974293 37.96875 37.4921875 C29.87360124 30.07460626 20.38432449 26.55393145 9.53125 26.1796875 C8.7475 26.2209375 7.96375 26.2621875 7.15625 26.3046875 C7.115 25.3353125 7.07375 24.3659375 7.03125 23.3671875 C6.01553252 16.49370206 1.48646684 11.06179193 -3.84375 6.8671875 C-16.00771706 -2.02771341 -33.31661025 1.14635013 -42.84375 12.3046875 Z " fill="#186538" transform="translate(222.84375,139.6953125)"/>
<path d="M0 0 C0.99 0.33 1.98 0.66 3 1 C3 1.99 3 2.98 3 4 C3.82242188 3.95359375 4.64484375 3.9071875 5.4921875 3.859375 C16.22381685 3.51239391 23.09289475 5.23060259 31.3125 12.25 C38.0802092 18.72022748 42.52739218 25.43861495 43.3359375 34.953125 C43.59403983 47.21865802 41.65306695 56.75016981 33 66 C23.87880063 74.19236033 15.00748438 76.20983953 3 76 C2.9175 77.11375 2.835 78.2275 2.75 79.375 C2 83 2 83 -0.0625 84.4375 C-0.701875 84.623125 -1.34125 84.80875 -2 85 C-2 84.01 -2 83.02 -2 82 C-10.91 82 -19.82 82 -29 82 C-29 81.67 -29 81.34 -29 81 C-25.04 81 -21.08 81 -17 81 C-17.12568359 79.26363281 -17.12568359 79.26363281 -17.25390625 77.4921875 C-17.35713442 75.95314934 -17.45997869 74.4140854 -17.5625 72.875 C-17.61857422 72.11445313 -17.67464844 71.35390625 -17.73242188 70.5703125 C-18.01498074 66.20006872 -17.93147699 62.31929331 -17 58 C-14.69 58 -12.38 58 -10 58 C-10.99 58.495 -10.99 58.495 -12 59 C-12 65.93 -12 72.86 -12 80 C-10.68 80 -9.36 80 -8 80 C-8.01047363 79.13197754 -8.02094727 78.26395508 -8.03173828 77.36962891 C-8.06579716 74.15300472 -8.09088767 70.93647233 -8.10986328 67.71972656 C-8.11992877 66.32679219 -8.13358234 64.93387898 -8.15087891 63.54101562 C-8.1751022 61.5404564 -8.18540814 59.53974385 -8.1953125 57.5390625 C-8.20578613 56.33459473 -8.21625977 55.13012695 -8.22705078 53.88916016 C-8 51 -8 51 -6 49 C-8.64 48.67 -11.28 48.34 -14 48 C-14 48.99 -14 49.98 -14 51 C-13.34 51 -12.68 51 -12 51 C-12 52.98 -12 54.96 -12 57 C-19.59 57 -27.18 57 -35 57 C-35 55.02 -35 53.04 -35 51 C-34.01 51 -33.02 51 -32 51 C-32 38.46 -32 25.92 -32 13 C-30.35 13 -28.7 13 -27 13 C-27 16.96 -27 20.92 -27 25 C-25.35 24.67 -23.7 24.34 -22 24 C-21.34 24.33 -20.68 24.66 -20 25 C-20 21.04 -20 17.08 -20 13 C-18.02 13 -16.04 13 -14 13 C-14 21.91 -14 30.82 -14 40 C-3.77 40 6.46 40 17 40 C17.66 38.02 18.32 36.04 19 34 C24.54090432 28.70000456 28.45473974 26.87060695 36 26 C29.9526044 15.32812541 22.79523718 11.05160172 11.109375 7.74609375 C7.38609516 6.85269369 3.81451079 6.29917732 0 6 C0 4.02 0 2.04 0 0 Z M-27 28 C-27 33.61 -27 39.22 -27 45 C-24.69 45 -22.38 45 -20 45 C-20 39.39 -20 33.78 -20 28 C-23.85938975 26.65486576 -23.85938975 26.65486576 -27 28 Z M-14 44 C-14 44.33 -14 44.66 -14 45 C-4.1 45 5.8 45 16 45 C16 44.67 16 44.34 16 44 C6.1 44 -3.8 44 -14 44 Z M-27 48 C-27 48.99 -27 49.98 -27 51 C-24.69 51 -22.38 51 -20 51 C-20 50.01 -20 49.02 -20 48 C-22.31 48 -24.62 48 -27 48 Z M5 48 C5.33 48.66 5.66 49.32 6 50 C7.32 49.34 8.64 48.68 10 48 C8.35 48 6.7 48 5 48 Z M-4.875 53.0625 C-6.20764658 56.54218828 -6.21742881 59.30371031 -6 63 C-3.69 63 -1.38 63 1 63 C1.99 59.37 2.98 55.74 4 52 C2.89203039 50.68879347 2.89203039 50.68879347 0.125 50.625 C-3.10839156 50.66720035 -3.10839156 50.66720035 -4.875 53.0625 Z M-6 66 C-6 70.62 -6 75.24 -6 80 C-5.01 80 -4.02 80 -3 80 C-2.67 75.38 -2.34 70.76 -2 66 C-3.32 66 -4.64 66 -6 66 Z " fill="#106132" transform="translate(226,165)"/>
<path d="M0 0 C1.875 1.25 1.875 1.25 3 3 C3 4.32 3 5.64 3 7 C7.29 5.68 11.58 4.36 16 3 C15 9 15 9 13.73046875 10.76953125 C11.65775923 12.24335405 9.74298935 12.94778585 7.3125 13.6875 C6.50425781 13.93886719 5.69601562 14.19023437 4.86328125 14.44921875 C4.24839844 14.63097656 3.63351562 14.81273437 3 15 C7.53140653 15.93380961 7.53140653 15.93380961 12 15 C10.66666667 19 9.33333333 23 8 27 C7.34 27 6.68 27 6 27 C5.505 25.515 5.505 25.515 5 24 C3.19756944 22.93770156 3.19756944 22.93770156 0.96484375 22.17578125 C0.15595703 21.86962891 -0.65292969 21.56347656 -1.48632812 21.24804688 C-2.33646484 20.93931641 -3.18660156 20.63058594 -4.0625 20.3125 C-4.91650391 19.99216797 -5.77050781 19.67183594 -6.65039062 19.34179688 C-8.76334351 18.55091507 -10.87968513 17.7708798 -13 17 C-12.0022242 19.99332739 -11.2477975 20.94766315 -9 23 C-11 24 -11 24 -13.4375 23.75 C-14.7059375 23.87375 -14.7059375 23.87375 -16 24 C-17.8624438 26.40858714 -17.8624438 26.40858714 -19 29 C-17.02 29.66 -15.04 30.32 -13 31 C-13.99 28.03 -13.99 28.03 -15 25 C-11.03935893 26.74268207 -7.25563451 29.14674729 -4 32 C-4 32.66 -4 33.32 -4 34 C-5.98 34 -7.96 34 -10 34 C-8.35 35.32 -6.7 36.64 -5 38 C-3.37506099 36.87890434 -3.37506099 36.87890434 -2 35 C-1.75 32 -1.75 32 -2 29 C-2 28.01 -2 27.02 -2 26 C-0.02 27.65 1.96 29.3 4 31 C2.52769684 35.31288807 0.23423235 38.71781434 -2.5 42.3125 C-3.10521484 43.13717773 -3.10521484 43.13717773 -3.72265625 43.97851562 C-4.76268691 45.36007451 -5.87633454 46.68556298 -7 48 C-7.66 48 -8.32 48 -9 48 C-9.04382813 47.43667969 -9.08765625 46.87335938 -9.1328125 46.29296875 C-10.41426959 42.90461149 -13.02024494 41.34158234 -15.875 39.3125 C-16.41769531 38.90966797 -16.96039063 38.50683594 -17.51953125 38.09179688 C-19.99953538 36.28181831 -22.06892674 34.97702442 -25 34 C-24.81824219 34.68626465 -24.63648438 35.3725293 -24.44921875 36.07958984 C-23.6302766 39.177396 -22.81509276 42.27617888 -22 45.375 C-21.71382813 46.45523438 -21.42765625 47.53546875 -21.1328125 48.6484375 C-20.72675781 50.1953125 -20.72675781 50.1953125 -20.3125 51.7734375 C-20.06113281 52.72653809 -19.80976563 53.67963867 -19.55078125 54.66162109 C-19 57 -19 57 -19 59 C-23.89486893 58.38694401 -27.75784089 56.25688818 -32.0625 54 C-33.46810482 53.26708664 -34.87560324 52.53779112 -36.28515625 51.8125 C-36.90269775 51.48894531 -37.52023926 51.16539062 -38.15649414 50.83203125 C-40.08229536 49.96285756 -41.93957493 49.45072688 -44 49 C-43.09111244 50.89957501 -42.17251969 52.79450786 -41.25 54.6875 C-40.73953125 55.74324219 -40.2290625 56.79898438 -39.703125 57.88671875 C-38.03556829 60.93498182 -36.38316106 63.47140982 -34 66 C-33.01 66 -32.02 66 -31 66 C-31 66.66 -31 67.32 -31 68 C-32.43011973 68.86646667 -33.86940619 69.71781829 -35.3125 70.5625 C-36.11300781 71.03816406 -36.91351563 71.51382813 -37.73828125 72.00390625 C-40 73 -40 73 -43 72 C-43 70.68 -43 69.36 -43 68 C-44.26583566 65.502235 -45.56090895 63.14200269 -47 60.75 C-47.3815625 60.1003125 -47.763125 59.450625 -48.15625 58.78125 C-49.09643883 57.18292899 -50.04720014 55.59083547 -51 54 C-51.99 54.99 -52.98 55.98 -54 57 C-53.566875 58.19238281 -53.13375 59.38476562 -52.6875 60.61328125 C-52.12475139 62.1795982 -51.56226502 63.74600939 -51 65.3125 C-50.71382812 66.09818359 -50.42765625 66.88386719 -50.1328125 67.69335938 C-49.86210937 68.45068359 -49.59140625 69.20800781 -49.3125 69.98828125 C-49.06113281 70.68477783 -48.80976563 71.38127441 -48.55078125 72.09887695 C-48 74 -48 74 -48 77 C-52.76551013 75.62394084 -56.7248553 73.53221934 -60.875 70.875 C-61.46796875 70.50246094 -62.0609375 70.12992187 -62.671875 69.74609375 C-64.1181343 68.83635 -65.55958046 67.91896202 -67 67 C-66.54965877 68.62723299 -66.08944646 70.25173664 -65.625 71.875 C-65.36976563 72.77992188 -65.11453125 73.68484375 -64.8515625 74.6171875 C-64.1395685 77.14569726 -64.1395685 77.14569726 -62 79 C-61.34 79 -60.68 79 -60 79 C-60 79.66 -60 80.32 -60 81 C-62.97 81.99 -65.94 82.98 -69 84 C-68.62101562 83.32324219 -68.24203125 82.64648438 -67.8515625 81.94921875 C-66.67238733 77.86537815 -67.81980317 75.71694918 -69.375 71.8125 C-72 65.14746094 -72 65.14746094 -72 63 C-72.99 63 -73.98 63 -75 63 C-74.88140625 64.24136719 -74.7628125 65.48273438 -74.640625 66.76171875 C-74.50927809 68.40355514 -74.37913279 70.04548798 -74.25 71.6875 C-74.12818359 72.91243164 -74.12818359 72.91243164 -74.00390625 74.16210938 C-73.70654193 78.24260863 -73.6518026 80.38186975 -75.703125 84.0234375 C-78.16791909 86.14450181 -79.30229304 86.71300345 -82.5 86.9375 C-83.2528125 87.00839844 -84.005625 87.07929688 -84.78125 87.15234375 C-87.3953365 86.97285542 -88.83330448 86.47353657 -91 85 C-94.00404223 80.75494361 -93.79806076 75.22765142 -94.33984375 70.21484375 C-94.99957676 67.00206112 -95.42336076 65.9166826 -98 64 C-96.58461283 63.66127487 -95.16762037 63.32925376 -93.75 63 C-92.96109375 62.814375 -92.1721875 62.62875 -91.359375 62.4375 C-89 62 -89 62 -85 62 C-85 62.66 -85 63.32 -85 64 C-85.99 64.495 -85.99 64.495 -87 65 C-86.34 70.94 -85.68 76.88 -85 83 C-79.48436516 82.67811123 -79.48436516 82.67811123 -78 81 C-77.61171389 75.67819623 -77.83242237 70.20102762 -79 65 C-79.99 64.34 -80.98 63.68 -82 63 C-82 62.34 -82 61.68 -82 61 C-80.6254817 60.68538803 -79.25035581 60.37343027 -77.875 60.0625 C-77.10929687 59.88847656 -76.34359375 59.71445312 -75.5546875 59.53515625 C-74.71164063 59.35855469 -73.86859375 59.18195313 -73 59 C-72.0409375 58.7421875 -71.081875 58.484375 -70.09375 58.21875 C-65.96499719 57.92681798 -64.08672881 59.24507176 -60.625 61.4375 C-59.56539062 62.09621094 -58.50578125 62.75492187 -57.4140625 63.43359375 C-56.61742187 63.95050781 -55.82078125 64.46742188 -55 65 C-55.66 62.36 -56.32 59.72 -57 57 C-58.32 57 -59.64 57 -61 57 C-61 56.34 -61 55.68 -61 55 C-59.65808594 54.36384766 -59.65808594 54.36384766 -58.2890625 53.71484375 C-51.38979414 50.38670251 -45.03696539 46.91526366 -38.890625 42.28515625 C-37 41 -37 41 -35 41 C-35 41.99 -35 42.98 -35 44 C-31.7 45.65 -28.4 47.3 -25 49 C-25.99 45.37 -26.98 41.74 -28 38 C-29.98 37.505 -29.98 37.505 -32 37 C-31.05125 36.13375 -30.1025 35.2675 -29.125 34.375 C-20.56137131 25.74188953 -14.50555573 16.08643497 -10.25390625 4.765625 C-8.01906976 -0.16354706 -5.02592141 -0.52353348 0 0 Z M-7 6 C-8.71711243 8.44496043 -8.71711243 8.44496043 -10 11 C-7.03 11.99 -4.06 12.98 -1 14 C-0.67 12.35 -0.34 10.7 0 9 C-3.05580974 6.41222792 -3.05580974 6.41222792 -7 6 Z " fill="#1E683D" transform="translate(303,234)"/>
<path d="M0 0 C0.66 0 1.32 0 2 0 C2.33 1.32 2.66 2.64 3 4 C3.66 3.01 4.32 2.02 5 1 C6.32 1 7.64 1 9 1 C9 1.66 9 2.32 9 3 C10.32 3.33 11.64 3.66 13 4 C13 4.66 13 5.32 13 6 C13.99 5.34 14.98 4.68 16 4 C16.99 4 17.98 4 19 4 C19.625 6.3125 19.625 6.3125 20 9 C19.34 9.99 18.68 10.98 18 12 C19.32 12.33 20.64 12.66 22 13 C22.495 15.475 22.495 15.475 23 18 C20.69 19.65 18.38 21.3 16 23 C16.5259375 23.8353125 16.5259375 23.8353125 17.0625 24.6875 C18.21845993 27.53886783 17.80967438 29.08517222 17 32 C11.48 31.24727273 11.48 31.24727273 8.9375 29.9375 C6.52047954 28.76797397 4.65088143 28.85272881 2 29 C2.804375 29.4125 3.60875 29.825 4.4375 30.25 C7 32 7 32 7.875 34 C8 36 8 36 7 39 C5.35 38.67 3.7 38.34 2 38 C1.67 37.01 1.34 36.02 1 35 C-1.9192476 35.43248113 -3.05786193 36.05160659 -5.3125 38.0625 C-8.72511935 40.52276046 -10.88693102 40.32259365 -15 40 C-17 33.375 -17 33.375 -17 30 C-13 31 -13 31 -9 32 C-9 31.34 -9 30.68 -9 30 C-9.94875 29.566875 -10.8975 29.13375 -11.875 28.6875 C-15 27 -15 27 -17 24 C-17 23.01 -17 22.02 -17 21 C-17.99 20.34 -18.98 19.68 -20 19 C-19.69481346 15.43949035 -18.99971192 13.99964963 -16.6875 11.1875 C-14 9 -14 9 -10 9 C-10 9.66 -10 10.32 -10 11 C-6.19799934 9.73266645 -5.59382318 8.24882999 -3.4375 4.9375 C-2.34200476 3.25774062 -1.20650444 1.60188902 0 0 Z M-16 20 C-10.78022581 23.96217578 -10.78022581 23.96217578 -4.5 24.8125 C-3.675 24.544375 -2.85 24.27625 -2 24 C-3.83883881 21.71271266 -3.83883881 21.71271266 -6.625 21.875 C-7.40875 21.91625 -8.1925 21.9575 -9 22 C-9.33 20.35 -9.66 18.7 -10 17 C-8.68 16.67 -7.36 16.34 -6 16 C-10.68377325 15.46471163 -12.58908673 16.88145073 -16 20 Z " fill="#1E683D" transform="translate(271,109)"/>
<path d="M0 0 C1.7074998 1.28062485 3.38263741 2.6072711 5 4 C5.66 4 6.32 4 7 4 C7 4.66 7 5.32 7 6 C8.05960938 6.17402344 8.05960938 6.17402344 9.140625 6.3515625 C13.30656365 7.29629722 17.02591419 9.05832365 20.9296875 10.765625 C23.60532713 11.84132745 26.07514808 12.49859245 28.875 13.125 C33.16366595 14.42956687 34.45099246 16.83362959 36.5625 20.6875 C37.40360349 22.44492763 38.22592412 24.2120365 39 26 C40.80441192 21.32047386 40.80441192 21.32047386 40.125 16.5625 C39.75375 16.046875 39.3825 15.53125 39 15 C41.31 15.33 43.62 15.66 46 16 C46 16.99 46 17.98 46 19 C45.34 19 44.68 19 44 19 C43.896875 20.216875 43.79375 21.43375 43.6875 22.6875 C43.01161197 28.90964572 41.49138037 34.93130125 40 41 C36.11000303 37.60063328 34.0598982 33.77568943 31.75 29.25 C31.38648438 28.55261719 31.02296875 27.85523438 30.6484375 27.13671875 C29.75893803 25.42794346 28.87854133 23.71443502 28 22 C27.66127487 23.41538717 27.32925376 24.83237963 27 26.25 C26.7215625 27.43335938 26.7215625 27.43335938 26.4375 28.640625 C25.87845172 31.25556002 25.87845172 31.25556002 26 35 C26.99 35.495 26.99 35.495 28 36 C28 36.66 28 37.32 28 38 C21.84765625 37.4140625 21.84765625 37.4140625 20 37 C19.67 36.34 19.34 35.68 19 35 C19.99 34.34 20.98 33.68 22 33 C22.68404626 31.18456085 22.68404626 31.18456085 22.94921875 29.0859375 C23.07490234 28.32539063 23.20058594 27.56484375 23.33007812 26.78125 C23.50700195 25.59015625 23.50700195 25.59015625 23.6875 24.375 C23.81705078 23.57320313 23.94660156 22.77140625 24.08007812 21.9453125 C24.39828386 19.96536573 24.70065637 17.98288615 25 16 C24.34 15.67 23.68 15.34 23 15 C22.505 17.475 22.505 17.475 22 20 C21.34 20 20.68 20 20 20 C19.95875 19.071875 19.9175 18.14375 19.875 17.1875 C19.31140969 13.71052362 19.31140969 13.71052362 15.9375 12.125 C14.968125 11.75375 13.99875 11.3825 13 11 C12.855625 11.94875 12.71125 12.8975 12.5625 13.875 C12 17 12 17 11 19 C12.65 17.68 14.3 16.36 16 15 C16.66 15.33 17.32 15.66 18 16 C16.35 19.96 14.7 23.92 13 28 C10.8614515 25.8614515 10.57344937 24.86724686 10 22 C9.34 24.31 8.68 26.62 8 29 C10.80764728 29.77426109 10.80764728 29.77426109 14 30 C16.24755753 28.6483633 16.24755753 28.6483633 18 27 C18.66 27 19.32 27 20 27 C18.53227924 32.62626291 18.53227924 32.62626291 16.17871094 34.27880859 C13.44874172 35.18247613 12.49311977 34.80758293 9.890625 33.6640625 C9.13652344 33.34179688 8.38242188 33.01953125 7.60546875 32.6875 C6.43951172 32.1615625 6.43951172 32.1615625 5.25 31.625 C4.45722656 31.28210938 3.66445312 30.93921875 2.84765625 30.5859375 C0.89235178 29.73785363 -1.05467242 28.87072523 -3 28 C-3 27.34 -3 26.68 -3 26 C-2.01 25.67 -1.02 25.34 0 25 C1.18167376 22.72777657 2.17830794 20.55423015 3.125 18.1875 C3.38925781 17.55779297 3.65351563 16.92808594 3.92578125 16.27929688 C5.18707119 13.22851183 6.33127 10.23763183 7 7 C6.34 7 5.68 7 5 7 C4.34 8.65 3.68 10.3 3 12 C2.34 12 1.68 12 1 12 C1.04125 11.071875 1.0825 10.14375 1.125 9.1875 C1.27136339 5.84190281 1.27136339 5.84190281 -1 3 C-1.99 3 -2.98 3 -4 3 C-3.55138351 6.05059211 -2.89882897 8.19020153 -1.4375 10.9375 C0.1657521 14.35312404 0.56631533 16.27849926 0 20 C-1.5625 22.375 -1.5625 22.375 -4 24 C-8.50008452 24.7641653 -11.17351533 24.1956929 -14.875 21.6875 C-17.44425773 19.7691977 -17.94102325 19.17693026 -19 16 C-17.1875 12.8125 -17.1875 12.8125 -15 10 C-14.34 10 -13.68 10 -13 10 C-13.04125 11.093125 -13.0825 12.18625 -13.125 13.3125 C-13.32074666 17.08892229 -13.32074666 17.08892229 -11 20 C-9.68 20 -8.36 20 -7 20 C-7.42192024 17.04655832 -7.90689781 15.14151532 -9.5625 12.625 C-11.43047921 9.21390752 -11.35514212 6.83553487 -11 3 C-7.87129172 -1.69306243 -5.13532017 -1.33518325 0 0 Z " fill="#20693F" transform="translate(152,281)"/>
<path d="M0 0 C1.48117801 0.28127421 2.95993249 0.57533732 4.4375 0.875 C5.67306641 1.11863281 5.67306641 1.11863281 6.93359375 1.3671875 C7.61550781 1.57601562 8.29742187 1.78484375 9 2 C9.33 2.66 9.66 3.32 10 4 C9.43410156 4.15855469 8.86820313 4.31710938 8.28515625 4.48046875 C6.06779058 5.18581705 4.04806871 5.89153152 2 7 C0.86559222 9.57080135 0.86559222 9.57080135 1 12 C4.884634 11.76456764 6.70264269 10.52042079 9.4375 7.9375 C11.92546875 5.6929195 12.78967296 5.0412406 16.1875 4.375 C19.75083727 5.16685273 20.97164659 5.95746989 23 9 C23.62230035 14.80813661 23.62230035 14.80813661 22.078125 17.765625 C20.59749903 20.83416867 20.05394926 23.91697634 19.375 27.25 C18.98441406 29.14492187 18.98441406 29.14492187 18.5859375 31.078125 C18.39257812 32.04234375 18.19921875 33.0065625 18 34 C16 33 16 33 14 31 C8.65867426 29.90993352 3.42192274 29.88934852 -2 30 C-2.67958603 32.39719432 -2.67958603 32.39719432 -3 35 C-0.53124858 37.46875142 0.90851681 37.54461856 4.3125 38.125 C5.25738281 38.29257813 6.20226562 38.46015625 7.17578125 38.6328125 C9.82418807 38.97714202 12.33350826 39.06799797 15 39 C15.33 38.34 15.66 37.68 16 37 C16.66 37.33 17.32 37.66 18 38 C18.31328166 43.96156563 18.56043687 49.04878934 14.70703125 53.8671875 C12.2192872 56.06370058 9.71487774 58.09318024 7 60 C11.0100934 60.17864631 11.0100934 60.17864631 15 60 C15.66 59.34 16.32 58.68 17 58 C18.35439668 60.70879335 18.06501451 63.00933268 18 66 C17.34 66 16.68 66 16 66 C16 65.34 16 64.68 16 64 C8.41 64 0.82 64 -7 64 C-5.17124856 60.34249711 -4.23102338 59.06401768 -1.25 56.5625 C-0.54359375 55.964375 0.1628125 55.36625 0.890625 54.75 C1.58671875 54.1725 2.2828125 53.595 3 53 C3.61359375 52.484375 4.2271875 51.96875 4.859375 51.4375 C6.23422594 50.28524397 7.61626963 49.14157756 9 48 C4.38 48 -0.24 48 -5 48 C-5.66 49.32 -6.32 50.64 -7 52 C-7.33 48.7 -7.66 45.4 -8 42 C-7.34 42 -6.68 42 -6 42 C-5.34 42.99 -4.68 43.98 -4 45 C-1.03471821 45.0562279 1.68850026 44.95683804 4.625 44.6875 C5.42679688 44.62626953 6.22859375 44.56503906 7.0546875 44.50195312 C9.03758124 44.34851492 11.01898519 44.17604307 13 44 C13 43.67 13 43.34 13 43 C11.87980469 42.81824219 10.75960937 42.63648438 9.60546875 42.44921875 C8.13270431 42.19594079 6.66005378 41.94199984 5.1875 41.6875 C4.44951172 41.56955078 3.71152344 41.45160156 2.95117188 41.33007812 C-2.49354922 40.36924499 -2.49354922 40.36924499 -4.9609375 38.5703125 C-6.61425709 36.07168665 -6.82527236 33.97036991 -7 31 C-6.31611316 27.82925191 -5.65527054 25.73866861 -3.49609375 23.3046875 C0.37743872 21.28002421 3.98515943 21.93599454 8.25 22.3125 C9.09046875 22.37373047 9.9309375 22.43496094 10.796875 22.49804688 C12.86570599 22.65085825 14.93305508 22.82350162 17 23 C17.33 22.34 17.66 21.68 18 21 C16.02 20.67 14.04 20.34 12 20 C12 19.34 12 18.68 12 18 C14.31 17.34 16.62 16.68 19 16 C19.33 14.68 19.66 13.36 20 12 C19.34 11.67 18.68 11.34 18 11 C17.34773438 11.5775 16.69546875 12.155 16.0234375 12.75 C15.14945313 13.4925 14.27546875 14.235 13.375 15 C12.51648438 15.7425 11.65796875 16.485 10.7734375 17.25 C7.51689392 19.30483313 5.78234232 19.46228628 2 19 C-0.375 17.5 -0.375 17.5 -2 15 C-2.48127744 9.94658683 -2.17711798 6.62637572 0 2 C0 1.34 0 0.68 0 0 Z " fill="#246B42" transform="translate(91,156)"/>
<path d="M0 0 C2.8125 0.5625 2.8125 0.5625 4.8125 2.5625 C4.4375 6.1875 4.4375 6.1875 3.8125 9.5625 C4.8025 9.5625 5.7925 9.5625 6.8125 9.5625 C7.75943195 13.2641431 8.11693767 14.95362465 6.375 18.4375 C5.859375 19.13875 5.34375 19.84 4.8125 20.5625 C8.28661022 25.46188621 11.88936172 29.83202034 16.296875 33.921875 C17.94962289 35.71093199 18.91091159 37.30397549 19.8125 39.5625 C19.4375 41.8125 19.4375 41.8125 18.8125 43.5625 C13.22418791 43.31674249 10.27515374 39.68961988 6.5 36 C5.85482422 35.38447266 5.20964844 34.76894531 4.54492188 34.13476562 C2.95886304 32.6191983 1.38202031 31.09515772 -0.1875 29.5625 C-1.1775 33.0275 -1.1775 33.0275 -2.1875 36.5625 C-5.57225573 37.69075191 -7.26117868 37.54181827 -10.75 36.5625 C-15.19905313 33.97396 -16.30112169 32.31945399 -18.1875 27.5625 C-17.4375 24.625 -17.4375 24.625 -16.1875 22.5625 C-15.5275 22.5625 -14.8675 22.5625 -14.1875 22.5625 C-13.8575 19.9225 -13.5275 17.2825 -13.1875 14.5625 C-14.115625 14.129375 -14.115625 14.129375 -15.0625 13.6875 C-17.1875 12.5625 -17.1875 12.5625 -19.1875 10.5625 C-19.5 8.0625 -19.5 8.0625 -19.1875 5.5625 C-16.1875 3.5625 -16.1875 3.5625 -14.25 3.75 C-11.87928476 4.68391812 -10.14959466 5.95077939 -8.1875 7.5625 C-7.89617187 7.0571875 -7.60484375 6.551875 -7.3046875 6.03125 C-3.93769701 0.69488771 -3.93769701 0.69488771 0 0 Z M-4.1875 10.5625 C-4.1875 11.5525 -4.1875 12.5425 -4.1875 13.5625 C-3.1975 13.8925 -2.2075 14.2225 -1.1875 14.5625 C-1.5175 13.2425 -1.8475 11.9225 -2.1875 10.5625 C-2.8475 10.5625 -3.5075 10.5625 -4.1875 10.5625 Z M-9.1875 20.5625 C-9.5175 21.8825 -9.8475 23.2025 -10.1875 24.5625 C-8.8675 24.5625 -7.5475 24.5625 -6.1875 24.5625 C-6.8475 23.2425 -7.5075 21.9225 -8.1875 20.5625 C-8.5175 20.5625 -8.8475 20.5625 -9.1875 20.5625 Z " fill="#176437" transform="translate(134.1875,104.4375)"/>
<path d="M0 0 C0.33 0 0.66 0 1 0 C1 1.98 1 3.96 1 6 C2.98 6 4.96 6 7 6 C7.33 7.32 7.66 8.64 8 10 C8.33 8.68 8.66 7.36 9 6 C11.31 6 13.62 6 16 6 C16.33 7.32 16.66 8.64 17 10 C17.33 8.68 17.66 7.36 18 6 C19.98 6 21.96 6 24 6 C24 4.02 24 2.04 24 0 C24.33 0 24.66 0 25 0 C25 1.98 25 3.96 25 6 C25.66 6 26.32 6 27 6 C27.33 4.68 27.66 3.36 28 2 C28 10.91 28 19.82 28 29 C27.67 29 27.34 29 27 29 C27 22.4 27 15.8 27 9 C26.34 9 25.68 9 25 9 C25 15.6 25 22.2 25 29 C24.67 29 24.34 29 24 29 C24 22.07 24 15.14 24 8 C21.525 7.505 21.525 7.505 19 7 C19.04125 7.94875 19.0825 8.8975 19.125 9.875 C19 13 19 13 17 15 C16.01 14.34 15.02 13.68 14 13 C11.38084878 13.15701426 11.38084878 13.15701426 9 14 C7.58365167 16.83269666 7.6536995 19.47466438 7.4375 22.625 C7.35371094 23.81351563 7.26992187 25.00203125 7.18359375 26.2265625 C7.09271484 27.59941406 7.09271484 27.59941406 7 29 C10.63 29 14.26 29 18 29 C18 24.71 18 20.42 18 16 C18.33 16 18.66 16 19 16 C19 20.62 19 25.24 19 30 C23.95 30.33 28.9 30.66 34 31 C34 31.33 34 31.66 34 32 C13.21 32.495 13.21 32.495 -8 33 C-2.16731065 40.77691913 1.2477147 44.40053242 10.4375 45.9375 C16.73356681 46.38256679 22.37497578 44.54524536 27.3125 40.625 C30.04041489 38.07929466 30.04041489 38.07929466 32.1875 35.1875 C32.785625 34.465625 33.38375 33.74375 34 33 C34.99 33 35.98 33 37 33 C35.11364682 39.22496549 30.93530201 44.08664935 25.375 47.375 C18.38739799 50.73940097 10.26800167 51.34392925 2.8125 48.9375 C-3.41057602 46.23571185 -9.16407743 41.20358063 -12 35 C-12 34.34 -12 33.68 -12 33 C-11.34 33 -10.68 33 -10 33 C-10 32.34 -10 31.68 -10 31 C-6.7 30.34 -3.4 29.68 0 29 C0 22.4 0 15.8 0 9 C-0.66 9 -1.32 9 -2 9 C-2 15.6 -2 22.2 -2 29 C-2.33 29 -2.66 29 -3 29 C-3 20.09 -3 11.18 -3 2 C-2.67 3.32 -2.34 4.64 -2 6 C-1.34 6 -0.68 6 0 6 C0 4.02 0 2.04 0 0 Z " fill="#437C5B" transform="translate(190,216)"/>
<path d="M0 0 C2.5 0.875 2.5 0.875 3.75 3.25 C3.9975 4.11625 4.245 4.9825 4.5 5.875 C4.83 6.865 5.16 7.855 5.5 8.875 C7.975 9.37 7.975 9.37 10.5 9.875 C10.995 11.855 10.995 11.855 11.5 13.875 C7.96588679 15.99546792 4.55606165 16.40699289 0.5 16.875 C3.15450059 25.84424422 6.57432729 32.5213505 14.4375 37.875 C15.118125 38.205 15.79875 38.535 16.5 38.875 C16.005 39.865 16.005 39.865 15.5 40.875 C14.324375 40.936875 13.14875 40.99875 11.9375 41.0625 C10.94556641 41.11470703 10.94556641 41.11470703 9.93359375 41.16796875 C6.25069868 40.72460257 3.72787559 39.72369238 0.5 37.875 C-1.1364588 35.46568003 -2.02964527 32.9419261 -2.9375 30.1875 C-3.31938477 29.1346582 -3.31938477 29.1346582 -3.70898438 28.06054688 C-4.32923291 26.34023491 -4.91787424 24.60858331 -5.5 22.875 C-6.28375 23.65875 -7.0675 24.4425 -7.875 25.25 C-12.5 29.875 -12.5 29.875 -15.3125 30.25 C-19.21320853 29.79109311 -20.78747071 28.66730957 -23.5 25.875 C-23.5 24.885 -23.5 23.895 -23.5 22.875 C-22.46875 22.9575 -21.4375 23.04 -20.375 23.125 C-15.8759016 22.83473559 -13.96278168 21.67820422 -10.5 18.875 C-10.17 18.215 -9.84 17.555 -9.5 16.875 C-10.634375 16.730625 -11.76875 16.58625 -12.9375 16.4375 C-16.5 15.875 -16.5 15.875 -17.5 14.875 C-17.625 11.375 -17.625 11.375 -17.5 7.875 C-17.17 7.545 -16.84 7.215 -16.5 6.875 C-12.59467317 7.25293485 -9.2184246 7.63552513 -5.5 8.875 C-5.37625 7.575625 -5.2525 6.27625 -5.125 4.9375 C-4.9140625 2.72265625 -4.9140625 2.72265625 -4.5 0.875 C-2.5 -0.125 -2.5 -0.125 0 0 Z " fill="#1B663A" transform="translate(230.5,81.125)"/>
<path d="M0 0 C1.65 0 3.3 0 5 0 C5 3.96 5 7.92 5 12 C6.65 11.67 8.3 11.34 10 11 C10.66 11.33 11.32 11.66 12 12 C12 8.04 12 4.08 12 0 C13.65 0 15.3 0 17 0 C17 12.54 17 25.08 17 38 C17.99 38 18.98 38 20 38 C20 39.98 20 41.96 20 44 C12.41 44 4.82 44 -3 44 C-3 42.02 -3 40.04 -3 38 C-2.01 38 -1.02 38 0 38 C0 25.46 0 12.92 0 0 Z M5 15 C5 20.61 5 26.22 5 32 C7.31 32 9.62 32 12 32 C12 26.39 12 20.78 12 15 C8.14061025 13.65486576 8.14061025 13.65486576 5 15 Z M5 35 C5 35.99 5 36.98 5 38 C7.31 38 9.62 38 12 38 C12 37.01 12 36.02 12 35 C9.69 35 7.38 35 5 35 Z " fill="#045A28" transform="translate(194,178)"/>
<path d="M0 0 C2.625 0.375 2.625 0.375 4.1875 2.25 C9.625 14.07065217 9.625 14.07065217 9.625 17.375 C11.74998069 15.75219693 11.74998069 15.75219693 13.625 13.375 C13.95948259 10.207168 13.95948259 10.207168 13.625 7.375 C15.605 7.375 17.585 7.375 19.625 7.375 C22.44823016 12.16221637 23.83723783 16.81639007 23.625 22.375 C22.63671875 24.6484375 22.63671875 24.6484375 21.625 26.375 C18.46384224 25.00516497 17.6322908 24.3859362 15.625 21.375 C15.08875 22.138125 14.5525 22.90125 14 23.6875 C11.625 26.375 11.625 26.375 8.5625 27.875 C5.43986186 29.13539149 5.43986186 29.13539149 4.0625 32.0625 C3.588125 32.825625 3.11375 33.58875 2.625 34.375 C0.125 34.875 0.125 34.875 -2.375 34.375 C-5.12888973 32.1922874 -5.89065889 30.34264339 -6.5625 26.9375 C-6.72105469 26.17566406 -6.87960938 25.41382812 -7.04296875 24.62890625 C-7.375 22.375 -7.375 22.375 -7.375 18.375 C-4.5 18.625 -4.5 18.625 -1.375 19.375 C0 21.4375 0 21.4375 0.625 23.375 C1.615 23.045 2.605 22.715 3.625 22.375 C3.1196875 21.27800781 2.614375 20.18101563 2.09375 19.05078125 C1.43701154 17.59657466 0.78078854 16.14213521 0.125 14.6875 C-0.20886719 13.96626953 -0.54273438 13.24503906 -0.88671875 12.50195312 C-3.96102492 5.63181994 -3.96102492 5.63181994 -3.375 1.375 C-2.375 0.375 -2.375 0.375 0 0 Z " fill="#1C673C" transform="translate(167.375,85.625)"/>
<path d="M0 0 C0.70253906 0.29390625 1.40507812 0.5878125 2.12890625 0.890625 C8.08517063 3.19209314 14.24114249 5.47566509 20.625 4.375 C23.26634471 3.07948232 23.26634471 3.07948232 25 0 C28.28571429 8.42857143 28.28571429 8.42857143 29 13 C28.34 13 27.68 13 27 13 C26.67 12.34 26.34 11.68 26 11 C18.65193353 12.09439288 14.75446367 16.53134651 10 22 C9.67 22.66 9.34 23.32 9 24 C10.98 24 12.96 24 15 24 C15 24.66 15 25.32 15 26 C13.68 26.33 12.36 26.66 11 27 C11 28.32 11 29.64 11 31 C19.91 30.01 19.91 30.01 29 29 C29.33 28.01 29.66 27.02 30 26 C30.66 26 31.32 26 32 26 C32.495 32.435 32.495 32.435 33 39 C32.01 38.505 32.01 38.505 31 38 C31 37.34 31 36.68 31 36 C30.29875 36.144375 29.5975 36.28875 28.875 36.4375 C23.13280185 37.56097355 17.84779485 38.2206715 12 38 C12.19471111 39.94999129 12.19471111 39.94999129 13 42 C14.9837767 43.28436734 14.9837767 43.28436734 17 44 C17 44.66 17 45.32 17 46 C14.69 46 12.38 46 10 46 C9.89042969 45.3915625 9.78085937 44.783125 9.66796875 44.15625 C8.49148223 37.6520969 7.28363902 31.15433945 6.0534668 24.66015625 C5.32167686 20.780462 4.63436368 16.89680544 4 13 C5.32 13 6.64 13 8 13 C10.75041666 10.58333229 10.75041666 10.58333229 13 8 C10.03 7.01 7.06 6.02 4 5 C4 5.99 4 6.98 4 8 C3.34 8 2.68 8 2 8 C1.34 5.36 0.68 2.72 0 0 Z " fill="#266D44" transform="translate(291,157)"/>
<path d="M0 0 C5.87170139 3.42922993 9.8168377 8.77592704 12.4375 15 C12.4375 16.32 12.4375 17.64 12.4375 19 C11.7775 19 11.1175 19 10.4375 19 C10.4375 20.98 10.4375 22.96 10.4375 25 C13.0775 25 15.7175 25 18.4375 25 C18.4375 25.33 18.4375 25.66 18.4375 26 C15.4675 26 12.4975 26 9.4375 26 C9.33953125 25.27554688 9.2415625 24.55109375 9.140625 23.8046875 C7.73170507 14.69529138 4.86226792 9.45493153 -2.5625 4 C-8.38274819 1.24405467 -14.63253602 0.87619181 -20.84375 2.65234375 C-26.80382757 5.32291697 -30.80743604 9.7405955 -33.875 15.4375 C-34.4863235 17.71606941 -34.82745617 19.8243753 -35.10546875 22.16015625 C-35.25628906 23.42730469 -35.40710938 24.69445312 -35.5625 26 C-36.67367187 26.08636719 -37.78484375 26.17273438 -38.9296875 26.26171875 C-52.02177752 27.43530954 -61.10005242 30.53755242 -70.5625 40 C-72.21241582 40.70710678 -73.87812256 41.37943989 -75.5625 42 C-72.91943468 34.38797188 -67.33165872 29.63961897 -60.25 26.0625 C-55.2265739 23.73610958 -51.44259741 22.88237527 -45.875 22.9375 C-44.10576172 22.95103516 -44.10576172 22.95103516 -42.30078125 22.96484375 C-41.39714844 22.97644531 -40.49351562 22.98804688 -39.5625 23 C-39.48773438 22.38253906 -39.41296875 21.76507813 -39.3359375 21.12890625 C-38.15806985 13.54205284 -35.65989668 7.24538603 -29.49609375 2.36328125 C-20.85878452 -3.18813849 -9.49108334 -4.31149823 0 0 Z " fill="#3B7855" transform="translate(215.5625,146)"/>
<path d="M0 0 C2 3 2 3 2.8125 6.5625 C3.60130329 10.10237207 3.60130329 10.10237207 6.1796875 11.17578125 C9.2709321 12.07917822 12.10099552 12.41325245 15.3125 12.625 C16.91544922 12.73714844 16.91544922 12.73714844 18.55078125 12.8515625 C19.35902344 12.90054688 20.16726562 12.94953125 21 13 C21.33 12.34 21.66 11.68 22 11 C22.66 11.33 23.32 11.66 24 12 C24.31328166 17.96156563 24.56043687 23.04878934 20.70703125 27.8671875 C18.2192872 30.06370058 15.71487774 32.09318024 13 34 C17.0100934 34.17864631 17.0100934 34.17864631 21 34 C21.66 33.34 22.32 32.68 23 32 C24.35439668 34.70879335 24.06501451 37.00933268 24 40 C23.34 40 22.68 40 22 40 C22 39.34 22 38.68 22 38 C14.41 38 6.82 38 -1 38 C0.82875144 34.34249711 1.76897662 33.06401768 4.75 30.5625 C5.80960937 29.6653125 5.80960937 29.6653125 6.890625 28.75 C7.58671875 28.1725 8.2828125 27.595 9 27 C9.61359375 26.484375 10.2271875 25.96875 10.859375 25.4375 C12.23422594 24.28524397 13.61626963 23.14157756 15 22 C10.38 22 5.76 22 1 22 C0.34 23.32 -0.32 24.64 -1 26 C-1.33 22.7 -1.66 19.4 -2 16 C-1.34 16 -0.68 16 0 16 C0.66 16.99 1.32 17.98 2 19 C4.96528179 19.0562279 7.68850026 18.95683804 10.625 18.6875 C11.42679688 18.62626953 12.22859375 18.56503906 13.0546875 18.50195312 C15.03758124 18.34851492 17.01898519 18.17604307 19 18 C19 17.67 19 17.34 19 17 C17.87980469 16.81824219 16.75960937 16.63648438 15.60546875 16.44921875 C14.13270431 16.19594079 12.66005378 15.94199984 11.1875 15.6875 C10.44951172 15.56955078 9.71152344 15.45160156 8.95117188 15.33007812 C3.50962089 14.36980442 3.50962089 14.36980442 1.03515625 12.57421875 C-1.12069902 9.29569168 -1.13699135 5.90022887 -0.5625 2.125 C-0.376875 1.42375 -0.19125 0.7225 0 0 Z " fill="#176438" transform="translate(85,182)"/>
<path d="M0 0 C1.875 1.25 1.875 1.25 3 3 C3 4.32 3 5.64 3 7 C7.29 5.68 11.58 4.36 16 3 C15 9 15 9 13.73046875 10.76953125 C11.65775923 12.24335405 9.74298935 12.94778585 7.3125 13.6875 C6.50425781 13.93886719 5.69601562 14.19023437 4.86328125 14.44921875 C4.24839844 14.63097656 3.63351562 14.81273437 3 15 C7.53140653 15.93380961 7.53140653 15.93380961 12 15 C10.66666667 19 9.33333333 23 8 27 C7.34 27 6.68 27 6 27 C5.67 26.01 5.34 25.02 5 24 C2.55991614 22.81675065 0.2180504 21.81715066 -2.3125 20.875 C-2.98990234 20.61074219 -3.66730469 20.34648437 -4.36523438 20.07421875 C-7.53695716 18.85265592 -10.66994361 17.70196561 -14 17 C-13.53262113 11.07986759 -11.03791739 6.02533998 -8 1 C-5.20129973 -0.39935013 -3.09501208 -0.25265405 0 0 Z M-7 6 C-8.71711243 8.44496043 -8.71711243 8.44496043 -10 11 C-7.03 11.99 -4.06 12.98 -1 14 C-0.67 12.35 -0.34 10.7 0 9 C-3.05580974 6.41222792 -3.05580974 6.41222792 -7 6 Z " fill="#286D45" transform="translate(303,234)"/>
<path d="M0 0 C6.75 -0.125 6.75 -0.125 9 1 C9 1.66 9 2.32 9 3 C8.195625 3.226875 7.39125 3.45375 6.5625 3.6875 C5.716875 4.120625 4.87125 4.55375 4 5 C3.10613836 7.54775306 3.10613836 7.54775306 3 10 C4.32 10 5.64 10 7 10 C7.226875 9.443125 7.45375 8.88625 7.6875 8.3125 C9.42795527 5.24598357 11.26790764 3.2353483 14 1 C17.61853729 0.3353707 19.23101795 0.53456349 22.375 2.4375 C25.25642655 6.98128802 24.33858948 11.92613943 23.5 17.0625 C23.335 17.701875 23.17 18.34125 23 19 C19.7 18.67 16.4 18.34 13 18 C13 17.34 13 16.68 13 16 C14.134375 15.608125 15.26875 15.21625 16.4375 14.8125 C20.20339051 13.41389118 20.20339051 13.41389118 20.9375 10.3125 C20.958125 9.549375 20.97875 8.78625 21 8 C20.34 7.67 19.68 7.34 19 7 C18.2575 7.7425 17.515 8.485 16.75 9.25 C15.8425 10.1575 14.935 11.065 14 12 C13.401875 12.763125 12.80375 13.52625 12.1875 14.3125 C8.71277391 16.99300298 6.31627189 16.54809802 2 16 C0 14.375 0 14.375 -1 12 C-1.35897734 7.87176057 -0.77278606 4.05712682 0 0 Z " fill="#1E683D" transform="translate(297,217)"/>
<path d="M0 0 C1.65 0.33 3.3 0.66 5 1 C4.85892253 2.45880109 4.71197585 3.91703551 4.5625 5.375 C4.48128906 6.18710937 4.40007812 6.99921875 4.31640625 7.8359375 C4 10 4 10 3 12 C4.65 10.68 6.3 9.36 8 8 C8.66 8.33 9.32 8.66 10 9 C8.35 12.96 6.7 16.92 5 21 C2.8614515 18.8614515 2.57344937 17.86724686 2 15 C1.34 17.31 0.68 19.62 0 22 C2.80764728 22.77426109 2.80764728 22.77426109 6 23 C8.24755753 21.6483633 8.24755753 21.6483633 10 20 C10.66 20 11.32 20 12 20 C10.53227924 25.62626291 10.53227924 25.62626291 8.17871094 27.27880859 C5.44874172 28.18247613 4.49311977 27.80758293 1.890625 26.6640625 C1.13652344 26.34179688 0.38242188 26.01953125 -0.39453125 25.6875 C-1.17183594 25.336875 -1.94914063 24.98625 -2.75 24.625 C-3.54277344 24.28210938 -4.33554688 23.93921875 -5.15234375 23.5859375 C-7.10764822 22.73785363 -9.05467242 21.87072523 -11 21 C-11 20.34 -11 19.68 -11 19 C-10.01 18.67 -9.02 18.34 -8 18 C-6.84517159 15.72854361 -5.86537846 13.54872524 -4.9375 11.1875 C-1.71609351 3.25975657 -1.71609351 3.25975657 0 0 Z " fill="#196539" transform="translate(160,288)"/>
<path d="M0 0 C0.33 0 0.66 0 1 0 C1 1.98 1 3.96 1 6 C1.99 6.33 2.98 6.66 4 7 C4 7.66 4 8.32 4 9 C4.66 9 5.32 9 6 9 C6 11.64 6 14.28 6 17 C7.32 17 8.64 17 10 17 C10 18.32 10 19.64 10 21 C10.66 21 11.32 21 12 21 C12 21.99 12 22.98 12 24 C4.41 24 -3.18 24 -11 24 C-11 23.01 -11 22.02 -11 21 C-10.34 21 -9.68 21 -9 21 C-9 19.68 -9 18.36 -9 17 C-7.68 17 -6.36 17 -5 17 C-5 14.36 -5 11.72 -5 9 C-4.34 9 -3.68 9 -3 9 C-2.67 8.01 -2.34 7.02 -2 6 C-1.34 6 -0.68 6 0 6 C0 4.02 0 2.04 0 0 Z " fill="#0B5E2E" transform="translate(202,152)"/>
<path d="M0 0 C14.52 0 29.04 0 44 0 C44 0.33 44 0.66 44 1 C23.21 1.495 23.21 1.495 2 2 C7.83268935 9.77691913 11.2477147 13.40053242 20.4375 14.9375 C26.73356681 15.38256679 32.37497578 13.54524536 37.3125 9.625 C40.04041489 7.07929466 40.04041489 7.07929466 42.1875 4.1875 C42.785625 3.465625 43.38375 2.74375 44 2 C44.99 2 45.98 2 47 2 C45.11364682 8.22496549 40.93530201 13.08664935 35.375 16.375 C28.38739799 19.73940097 20.26800167 20.34392925 12.8125 17.9375 C6.58942398 15.23571185 0.83592257 10.20358063 -2 4 C-2 3.34 -2 2.68 -2 2 C-1.34 2 -0.68 2 0 2 C0 1.34 0 0.68 0 0 Z " fill="#377551" transform="translate(180,247)"/>
<path d="M0 0 C3.9282453 3.27353775 7.77401983 6.62205385 11.5 10.125 C12.1909375 10.76695312 12.881875 11.40890625 13.59375 12.0703125 C15 14 15 14 14.84765625 16.1328125 C13.73720999 18.57886464 12.22690466 19.56328732 10 21 C8.66667905 18.3333581 9.32897967 16.83319697 10 14 C5.768496 14.50422127 3.68469084 16.88209965 0.75 19.8125 C-0.58804688 21.12154297 -0.58804688 21.12154297 -1.953125 22.45703125 C-4.41801808 24.97526291 -4.41801808 24.97526291 -4 29 C-8.13639336 27.40907948 -11.23213248 24.39525082 -14 21 C-14 20.34 -14 19.68 -14 19 C-12.88818359 19.11601562 -12.88818359 19.11601562 -11.75390625 19.234375 C-8.20073099 18.93197711 -7.31632639 17.84164386 -4.9375 15.25 C-4.28652344 14.55390625 -3.63554688 13.8578125 -2.96484375 13.140625 C-2.31644531 12.43421875 -1.66804688 11.7278125 -1 11 C0.32754889 9.66090721 1.65922221 8.32584708 3 7 C-0.47147842 6.25042843 -0.47147842 6.25042843 -4 6 C-2.84826645 3.53199953 -1.95216435 1.95216435 0 0 Z " fill="#2B6F47" transform="translate(124,258)"/>
<path d="M0 0 C-0.43570313 0.66644531 -0.87140625 1.33289063 -1.3203125 2.01953125 C-5.06639667 7.81704247 -8.53584896 13.66982665 -11.73828125 19.78515625 C-13 22 -13 22 -15 24 C-16.0055761 22.54550599 -17.00430435 21.08627557 -18 19.625 C-18.556875 18.81289063 -19.11375 18.00078125 -19.6875 17.1640625 C-21 15 -21 15 -21 13 C-19.68 13 -18.36 13 -17 13 C-17.33 11.02 -17.66 9.04 -18 7 C-19.32 6.67 -20.64 6.34 -22 6 C-22.33 7.32 -22.66 8.64 -23 10 C-25.87402727 7.4041044 -27.24432948 5.78630702 -28 2 C-27.05898437 1.93941406 -26.11796875 1.87882813 -25.1484375 1.81640625 C-23.28058594 1.69072266 -23.28058594 1.69072266 -21.375 1.5625 C-19.53035156 1.44068359 -19.53035156 1.44068359 -17.6484375 1.31640625 C-14.06548679 1.05380894 -14.06548679 1.05380894 -10.8125 0.46875 C-7.14318023 -0.14280329 -3.714491 -0.06404295 0 0 Z M-16 4 C-15.34 5.32 -14.68 6.64 -14 8 C-12.97895449 7.02149805 -11.9793879 6.02019573 -11 5 C-11 4.67 -11 4.34 -11 4 C-12.65 4 -14.3 4 -16 4 Z " fill="#2A6F47" transform="translate(123,253)"/>
<path d="M0 0 C0.99 0.33 1.98 0.66 3 1 C3.94921875 3.28515625 3.94921875 3.28515625 4.6875 6.0625 C4.93886719 6.98160156 5.19023438 7.90070313 5.44921875 8.84765625 C5.63097656 9.55792969 5.81273438 10.26820313 6 11 C5.22269531 11.11214844 4.44539063 11.22429687 3.64453125 11.33984375 C0.08311173 12.22888348 -0.95939 14.05245223 -3 17 C0.3 17.66 3.6 18.32 7 19 C7.33 18.01 7.66 17.02 8 16 C8.99 18.31 9.98 20.62 11 23 C8 23 8 23 4.3125 22 C-0.67353697 20.71446561 -5.42351272 20.20723468 -10.4375 21.75 C-12.42027913 23.3362233 -12.67012361 24.52592708 -13 27 C-15.25597827 24.74402173 -15.96574192 22.95396133 -17.125 20 C-17.47820312 19.113125 -17.83140625 18.22625 -18.1953125 17.3125 C-19 15 -19 15 -19 13 C-18.34 13 -17.68 13 -17 13 C-16.67 13.66 -16.34 14.32 -16 15 C-10.39528605 14.29941076 -8.18274092 12.47435561 -4.625 8.0625 C-2.52300647 5.30718416 -1.09809459 3.29428376 0 0 Z " fill="#286D45" transform="translate(108,227)"/>
<path d="M0 0 C0.66 0 1.32 0 2 0 C2.33 4.29 2.66 8.58 3 13 C2.34 12.67 1.68 12.34 1 12 C1 11.34 1 10.68 1 10 C0.29875 10.144375 -0.4025 10.28875 -1.125 10.4375 C-6.86719815 11.56097355 -12.15220515 12.2206715 -18 12 C-17.80528889 13.94999129 -17.80528889 13.94999129 -17 16 C-15.0162233 17.28436734 -15.0162233 17.28436734 -13 18 C-13 18.66 -13 19.32 -13 20 C-15.31 20 -17.62 20 -20 20 C-21.14077657 16.57767028 -21.09815117 13.91326783 -21.0625 10.3125 C-21.05347656 9.13300781 -21.04445313 7.95351562 -21.03515625 6.73828125 C-21.02355469 5.83464844 -21.01195312 4.93101562 -21 4 C-20.00419922 4.27650391 -20.00419922 4.27650391 -18.98828125 4.55859375 C-15.25973787 5.10934591 -11.87507217 4.63063313 -8.1875 4.0625 C-7.49462891 3.96259766 -6.80175781 3.86269531 -6.08789062 3.75976562 C-4.39082787 3.51398412 -2.69524541 3.25801848 -1 3 C-0.67 2.01 -0.34 1.02 0 0 Z " fill="#1E683D" transform="translate(321,183)"/>
<path d="M0 0 C0.66 0 1.32 0 2 0 C2.33 0.66 2.66 1.32 3 2 C9.6 2.33 16.2 2.66 23 3 C23 2.01 23 1.02 23 0 C23.66 0 24.32 0 25 0 C25.05391993 1.79133978 25.09275571 3.58313899 25.125 5.375 C25.14820313 6.37273437 25.17140625 7.37046875 25.1953125 8.3984375 C25 11 25 11 23 13 C22.67 12.34 22.34 11.68 22 11 C15.73 11 9.46 11 3 11 C2.67 11.66 2.34 12.32 2 13 C1.34 13 0.68 13 0 13 C0 8.71 0 4.42 0 0 Z " fill="#2B6F48" transform="translate(299,203)"/>
<path d="M0 0 C0 0.66 0 1.32 0 2 C-0.99 2.495 -0.99 2.495 -2 3 C-1.34 8.94 -0.68 14.88 0 21 C1.98 21.33 3.96 21.66 6 22 C6 22.66 6 23.32 6 24 C3.57847262 25.21076369 2.24576913 25.07767714 -0.4375 24.875 C-1.21996094 24.83117187 -2.00242188 24.78734375 -2.80859375 24.7421875 C-5 24 -5 24 -6.72265625 21.890625 C-8.68758168 17.44400475 -8.88813078 12.97737797 -9.375 8.1796875 C-10.00525467 4.97326686 -10.4328251 3.91142913 -13 2 C-11.58461283 1.66127487 -10.16762037 1.32925376 -8.75 1 C-7.56664062 0.7215625 -7.56664062 0.7215625 -6.359375 0.4375 C-4 0 -4 0 0 0 Z " fill="#216A40" transform="translate(218,296)"/>
<path d="M0 0 C1.875 1.25 1.875 1.25 3 3 C3 4.32 3 5.64 3 7 C7.29 5.68 11.58 4.36 16 3 C15 9 15 9 13.6875 10.8125 C9.54965299 13.72431826 4.86329868 13.08105498 0 13 C-0.3403125 11.7934375 -0.3403125 11.7934375 -0.6875 10.5625 C-1.74514268 7.77795145 -1.74514268 7.77795145 -4.4375 7.125 C-7.12077174 6.83910476 -7.12077174 6.83910476 -10 8 C-9.6875 5.125 -9.6875 5.125 -9 2 C-5.53076119 -0.31282587 -4.07794425 -0.42478586 0 0 Z " fill="#1A663A" transform="translate(303,234)"/>
<path d="M0 0 C0.33 0 0.66 0 1 0 C1 3.63 1 7.26 1 11 C-0.66675781 11.12955078 -0.66675781 11.12955078 -2.3671875 11.26171875 C-15.45927752 12.43530954 -24.53755242 15.53755242 -34 25 C-35.64991582 25.70710678 -37.31562256 26.37943989 -39 27 C-36.35693468 19.38797188 -30.76915872 14.63961897 -23.6875 11.0625 C-18.6640739 8.73610958 -14.88009741 7.88237527 -9.3125 7.9375 C-7.54326172 7.95103516 -7.54326172 7.95103516 -5.73828125 7.96484375 C-4.83464844 7.97644531 -3.93101562 7.98804688 -3 8 C-2.85691406 7.38640625 -2.71382812 6.7728125 -2.56640625 6.140625 C-1.9729904 3.89792233 -1.09269725 2.03970153 0 0 Z " fill="#2E714A" transform="translate(179,161)"/>
<path d="M0 0 C1.71703125 0.17595703 1.71703125 0.17595703 3.46875 0.35546875 C6.88581951 0.77430858 10.28956601 1.19684795 13.6875 1.75 C13.8125 8.375 13.8125 8.375 12.6875 11.75 C10.6875 10.75 10.6875 10.75 8.6875 8.75 C3.39744961 7.67039788 -4.26946568 6.22848284 -9.3125 8.75 C-9.6425 6.77 -9.9725 4.79 -10.3125 2.75 C-6.85444335 -0.51454009 -4.6356139 -0.50114745 0 0 Z " fill="#1D683C" transform="translate(96.3125,178.25)"/>
<path d="M0 0 C0.66 0 1.32 0 2 0 C2 0.99 2 1.98 2 3 C5.3 4.65 8.6 6.3 12 8 C12 8.66 12 9.32 12 10 C12.66 10 13.32 10 14 10 C14 9.34 14 8.68 14 8 C14.66 8 15.32 8 16 8 C16.66 11.3 17.32 14.6 18 18 C14.10797848 17.2215957 12.08708551 16.71895474 8.79296875 14.93359375 C7.66665039 14.3293457 7.66665039 14.3293457 6.51757812 13.71289062 C5.36418945 13.08157227 5.36418945 13.08157227 4.1875 12.4375 C3.00510742 11.80038086 3.00510742 11.80038086 1.79882812 11.15039062 C-0.1373378 10.10603446 -2.07005367 9.0557923 -4 8 C-4 4.06830895 -2.60580385 2.83572772 0 0 Z " fill="#1E683D" transform="translate(266,275)"/>
<path d="M0 0 C2.31 0 4.62 0 7 0 C6.01 0.495 6.01 0.495 5 1 C5 8.26 5 15.52 5 23 C5.99 23.33 6.98 23.66 8 24 C1.4 24 -5.2 24 -12 24 C-12 23.67 -12 23.34 -12 23 C-8.04 23 -4.08 23 0 23 C-0.08378906 21.84242188 -0.16757813 20.68484375 -0.25390625 19.4921875 C-0.35713442 17.95314934 -0.45997869 16.4140854 -0.5625 14.875 C-0.61857422 14.11445313 -0.67464844 13.35390625 -0.73242188 12.5703125 C-1.01498074 8.20006872 -0.93147699 4.31929331 0 0 Z " fill="#005825" transform="translate(209,223)"/>
<path d="M0 0 C0.33 0 0.66 0 1 0 C1 1.98 1 3.96 1 6 C1.99 6.33 2.98 6.66 4 7 C4 7.66 4 8.32 4 9 C4.66 9 5.32 9 6 9 C6 11.64 6 14.28 6 17 C7.32 17.33 8.64 17.66 10 18 C8.35 18 6.7 18 5 18 C5 17.01 5 16.02 5 15 C4.34 15 3.68 15 3 15 C3 15.99 3 16.98 3 18 C1.35 18 -0.3 18 -2 18 C-2.33 17.34 -2.66 16.68 -3 16 C-3.33 16.66 -3.66 17.32 -4 18 C-5.65 18 -7.3 18 -9 18 C-7.68 17.67 -6.36 17.34 -5 17 C-5 14.36 -5 11.72 -5 9 C-4.34 9 -3.68 9 -3 9 C-2.67 8.01 -2.34 7.02 -2 6 C-1.34 6 -0.68 6 0 6 C0 4.02 0 2.04 0 0 Z " fill="#367551" transform="translate(202,152)"/>
<path d="M0 0 C-0.66 0.66 -1.32 1.32 -2 2 C-1.80958369 5.78219069 -1.47248557 9.50229137 -1.01367188 13.25976562 C-0.4705429 19.34380671 -0.4705429 19.34380671 -3.48046875 23.07421875 C-4.31191406 23.70972656 -5.14335937 24.34523438 -6 25 C-6 24.34 -6 23.68 -6 23 C-6.66 22.67 -7.32 22.34 -8 22 C-7.01 21.34 -6.02 20.68 -5 20 C-4.12927571 14.91040923 -4.88288164 8.97625449 -6 4 C-6.99 3.34 -7.98 2.68 -9 2 C-9 1.34 -9 0.68 -9 0 C-2.25 -1.125 -2.25 -1.125 0 0 Z " fill="#4F8264" transform="translate(230,295)"/>
<path d="M0 0 C2 3 2 3 2.8125 6.5625 C3.59732269 10.10603684 3.59732269 10.10603684 6.1796875 11.14453125 C9.21853174 12.06628594 12.17438834 12.64221359 15.3125 13.125 C16.38113281 13.29257813 17.44976562 13.46015625 18.55078125 13.6328125 C19.35902344 13.75398437 20.16726562 13.87515625 21 14 C17.45111109 16.36592594 16.27497028 16.16954233 12.125 15.8125 C11.09632812 15.73644531 10.06765625 15.66039062 9.0078125 15.58203125 C5.70429405 14.94277898 3.68067169 14.0200097 1 12 C-0.77274523 7.64871625 -1.37073015 4.52340949 0 0 Z " fill="#397753" transform="translate(85,182)"/>
<path d="M0 0 C0.33 0 0.66 0 1 0 C1 3.63 1 7.26 1 11 C-4.61 11 -10.22 11 -16 11 C-15 9 -15 9 -12 8 C-10.43881572 7.93259135 -8.8749748 7.91485544 -7.3125 7.9375 C-6.10013672 7.95103516 -6.10013672 7.95103516 -4.86328125 7.96484375 C-3.94095703 7.98224609 -3.94095703 7.98224609 -3 8 C-2.78537109 7.07960937 -2.78537109 7.07960937 -2.56640625 6.140625 C-1.9729904 3.89792233 -1.09269725 2.03970153 0 0 Z " fill="#1B663B" transform="translate(179,161)"/>
<path d="M0 0 C0.66 0.33 1.32 0.66 2 1 C0.53802892 4.14323783 -0.88281094 6.85440147 -3.0625 9.5625 C-4.98864395 11.98571335 -6.00215764 14.08962645 -7 17 C-7.66 16.34 -8.32 15.68 -9 15 C-9.66 15.99 -10.32 16.98 -11 18 C-10.68963546 11.9478915 -7.72988791 7.58592776 -4 3 C-1.80078125 1.23046875 -1.80078125 1.23046875 0 0 Z " fill="#447D5C" transform="translate(188,147)"/>
<path d="M0 0 C0.33 0.66 0.66 1.32 1 2 C1.66 2.33 2.32 2.66 3 3 C2.34 3 1.68 3 1 3 C1.22816406 3.80824219 1.45632813 4.61648438 1.69140625 5.44921875 C1.97886719 6.51785156 2.26632812 7.58648437 2.5625 8.6875 C2.85253906 9.74324219 3.14257812 10.79898437 3.44140625 11.88671875 C4.00124767 15.00695382 3.84690764 16.97693234 3 20 C2.34 19.67 1.68 19.34 1 19 C0.1484375 16.27734375 0.1484375 16.27734375 -0.625 12.9375 C-0.88539063 11.83277344 -1.14578125 10.72804688 -1.4140625 9.58984375 C-1.60742188 8.73519531 -1.80078125 7.88054687 -2 7 C-3.32 6.67 -4.64 6.34 -6 6 C-4.02 4.02 -2.04 2.04 0 0 Z " fill="#4D8263" transform="translate(277,265)"/>
<path d="M0 0 C0.66 0 1.32 0 2 0 C2.66 0.99 3.32 1.98 4 3 C6.95064148 3.2208564 9.68368231 3.28060989 12.625 3.1875 C13.82769531 3.16719727 13.82769531 3.16719727 15.0546875 3.14648438 C17.03674378 3.11109051 19.01845551 3.05728234 21 3 C20.01 3.495 20.01 3.495 19 4 C18.67 4.66 18.34 5.32 18 6 C13.05 6 8.1 6 3 6 C2.34 7.32 1.68 8.64 1 10 C0.67 6.7 0.34 3.4 0 0 Z " fill="#457D5C" transform="translate(83,198)"/>
<path d="M0 0 C1.56629708 3.01970788 2.87625164 6.08650414 4.125 9.25 C4.47820312 10.14203125 4.83140625 11.0340625 5.1953125 11.953125 C5.46085938 12.62859375 5.72640625 13.3040625 6 14 C6.99 14 7.98 14 9 14 C9 14.66 9 15.32 9 16 C4.545 17.485 4.545 17.485 0 19 C0.391875 18.34 0.78375 17.68 1.1875 17 C2.23048421 13.14898139 1.2048574 11.54724715 -0.328125 8.00390625 C-1.29182377 5.12961863 -0.78968144 2.87156889 0 0 Z " fill="#4F8265" transform="translate(234,299)"/>
<path d="M0 0 C0.56847656 0.19335938 1.13695312 0.38671875 1.72265625 0.5859375 C6.45364938 2.18136423 11.18794425 3.66900586 16 5 C14.68 5.99 13.36 6.98 12 8 C11.34 7.67 10.68 7.34 10 7 C9.67 8.65 9.34 10.3 9 12 C8.34 12 7.68 12 7 12 C6.95875 11.071875 6.9175 10.14375 6.875 9.1875 C6.31140969 5.71052362 6.31140969 5.71052362 2.9375 4.125 C1.968125 3.75375 0.99875 3.3825 0 3 C0 2.01 0 1.02 0 0 Z " fill="#437C5B" transform="translate(165,289)"/>
<path d="M0 0 C-1 2 -1 2 -2.62109375 3.33984375 C-3.30365234 4.16162109 -3.30365234 4.16162109 -4 5 C-3.85183682 7.25152059 -3.85183682 7.25152059 -3.0625 9.5625 C-2.34765625 11.94140625 -2.34765625 11.94140625 -2 14 C-2.66 14.66 -3.32 15.32 -4 16 C-4.50367757 14.54293274 -5.00282556 13.08429904 -5.5 11.625 C-5.7784375 10.81289063 -6.056875 10.00078125 -6.34375 9.1640625 C-7 7 -7 7 -7 5 C-8.32 5 -9.64 5 -11 5 C-11 4.34 -11 3.68 -11 3 C-9.73581754 2.30034557 -8.46334598 1.61565237 -7.1875 0.9375 C-6.47980469 0.55464844 -5.77210938 0.17179687 -5.04296875 -0.22265625 C-3 -1 -3 -1 0 0 Z " fill="#4E8264" transform="translate(253,286)"/>
<path d="M0 0 C14.52 0 29.04 0 44 0 C44 0.33 44 0.66 44 1 C23.21 1.495 23.21 1.495 2 2 C1.67 3.32 1.34 4.64 1 6 C0.01 5.34 -0.98 4.68 -2 4 C-2 3.34 -2 2.68 -2 2 C-1.34 2 -0.68 2 0 2 C0 1.34 0 0.68 0 0 Z " fill="#2D7049" transform="translate(180,247)"/>
<path d="M0 0 C2.31 0.33 4.62 0.66 7 1 C7 1.99 7 2.98 7 4 C6.34 4 5.68 4 5 4 C4.93941406 4.58007812 4.87882813 5.16015625 4.81640625 5.7578125 C4.33983439 10.20092863 3.78991334 14.59905423 3 19 C2.67 17.68 2.34 16.36 2 15 C1.34 15 0.68 15 0 15 C0.16757813 14.25234375 0.33515625 13.5046875 0.5078125 12.734375 C0.71148437 11.74953125 0.91515625 10.7646875 1.125 9.75 C1.33382812 8.77546875 1.54265625 7.8009375 1.7578125 6.796875 C2.0202996 3.76557234 1.61988849 2.51982654 0 0 Z " fill="#457D5D" transform="translate(191,296)"/>
<path d="M0 0 C2.31 0 4.62 0 7 0 C7.12375 0.598125 7.2475 1.19625 7.375 1.8125 C7.95475985 4.26231348 7.95475985 4.26231348 10 7 C9.34 7.66 8.68 8.32 8 9 C7.01 8.34 6.02 7.68 5 7 C2.37468476 6.83286431 2.37468476 6.83286431 0 7 C-1.04449911 3.86650268 -0.93423645 3.01031744 0 0 Z " fill="#2E714A" transform="translate(199,222)"/>
<path d="M0 0 C-0.99 0.33 -1.98 0.66 -3 1 C-1.68 1.66 -0.36 2.32 1 3 C0.33613281 3.19335938 -0.32773438 3.38671875 -1.01171875 3.5859375 C-7.59789309 5.52751352 -7.59789309 5.52751352 -14 8 C-14 6.33333333 -14 4.66666667 -14 3 C-12.42274653 2.29866401 -10.83788667 1.614417 -9.25 0.9375 C-7.92742187 0.36322266 -7.92742187 0.36322266 -6.578125 -0.22265625 C-3.84743691 -1.04600008 -2.63098653 -0.9773992 0 0 Z " fill="#31734D" transform="translate(167,170)"/>
<path d="M0 0 C1.48117801 0.28127421 2.95993249 0.57533732 4.4375 0.875 C5.67306641 1.11863281 5.67306641 1.11863281 6.93359375 1.3671875 C7.61550781 1.57601562 8.29742187 1.78484375 9 2 C9.33 2.66 9.66 3.32 10 4 C8.741875 4.33 7.48375 4.66 6.1875 5 C3.49584383 5.97661861 2.29976478 6.50494872 0.80078125 8.98046875 C-0.12477753 11.42652106 -0.12477753 11.42652106 -1 15 C-1.33 15 -1.66 15 -2 15 C-2.16890456 10.01731555 -2.1542492 6.57777956 0 2 C0 1.34 0 0.68 0 0 Z " fill="#4D8163" transform="translate(91,156)"/>
<path d="M0 0 C0.99386719 0.00902344 1.98773438 0.01804688 3.01171875 0.02734375 C4.15060547 0.04474609 4.15060547 0.04474609 5.3125 0.0625 C5.6425 0.7225 5.9725 1.3825 6.3125 2.0625 C5.03375 2.124375 3.755 2.18625 2.4375 2.25 C-3.26274395 2.84811781 -7.75638932 5.27266494 -12.6875 8.0625 C-11.97614254 4.80770406 -11.32477752 3.19260877 -8.6875 1.0625 C-5.53819107 0.01273036 -3.29935544 -0.03881595 0 0 Z " fill="#20693F" transform="translate(200.6875,143.9375)"/>
<path d="M0 0 C0.66 0.33 1.32 0.66 2 1 C2.33 1.99 2.66 2.98 3 4 C4.49985609 5.66710346 4.49985609 5.66710346 6 7 C4 8 4 8 1.625 7.75 C-1.26660701 7.73119082 -1.26660701 7.73119082 -3.3125 10.5 C-4.1478125 11.7375 -4.1478125 11.7375 -5 13 C-5.66 12.01 -6.32 11.02 -7 10 C-3.535 5.05 -3.535 5.05 0 0 Z " fill="#487F5F" transform="translate(288,250)"/>
<path d="M0 0 C0.721875 0.515625 1.44375 1.03125 2.1875 1.5625 C4.8562818 3.23330642 4.8562818 3.23330642 7.5625 2.8125 C9.8495712 2.05014293 11.89451994 1.16971114 14 0 C12.54054054 5.59459459 12.54054054 5.59459459 10.25 7.3125 C7.14387474 8.26159383 5.67627825 7.43412448 2.75 6.125 C1.85796875 5.73570312 0.9659375 5.34640625 0.046875 4.9453125 C-0.62859375 4.63335937 -1.3040625 4.32140625 -2 4 C-1.34 3.67 -0.68 3.34 0 3 C0 2.01 0 1.02 0 0 Z " fill="#407B59" transform="translate(158,308)"/>
<path d="M0 0 C2.5 1.1875 2.5 1.1875 4.5 3.1875 C5.16 3.1875 5.82 3.1875 6.5 3.1875 C6.5 3.8475 6.5 4.5075 6.5 5.1875 C7.49 5.5175 8.48 5.8475 9.5 6.1875 C8.84 6.1875 8.18 6.1875 7.5 6.1875 C7.17 7.1775 6.84 8.1675 6.5 9.1875 C6.5 8.1975 6.5 7.2075 6.5 6.1875 C5.84 6.1875 5.18 6.1875 4.5 6.1875 C3.84 7.8375 3.18 9.4875 2.5 11.1875 C1.84 11.1875 1.18 11.1875 0.5 11.1875 C0.54125 10.259375 0.5825 9.33125 0.625 8.375 C0.77136339 5.02940281 0.77136339 5.02940281 -1.5 2.1875 C-2.49 1.5275 -3.48 0.8675 -4.5 0.1875 C-2.5 -0.8125 -2.5 -0.8125 0 0 Z " fill="#437C5B" transform="translate(152.5,281.8125)"/>
<path d="M0 0 C0.70511719 0.29648438 1.41023438 0.59296875 2.13671875 0.8984375 C5.00322261 2.0012398 7.84492532 2.83841394 10.8125 3.625 C11.78832031 3.88539063 12.76414062 4.14578125 13.76953125 4.4140625 C14.87361328 4.70410156 14.87361328 4.70410156 16 5 C13 7 13 7 10.73828125 6.7578125 C9.93777344 6.54898438 9.13726562 6.34015625 8.3125 6.125 C7.50425781 5.92132813 6.69601562 5.71765625 5.86328125 5.5078125 C5.24839844 5.34023437 4.63351562 5.17265625 4 5 C4 5.99 4 6.98 4 8 C3.34 8 2.68 8 2 8 C1.34 5.36 0.68 2.72 0 0 Z " fill="#4C8162" transform="translate(291,157)"/>
<path d="M0 0 C0.66 0 1.32 0 2 0 C1.95875 1.051875 1.9175 2.10375 1.875 3.1875 C1.99147875 6.74010173 2.47208068 8.84866641 4 12 C0.45176068 12 -0.41927097 11.32265612 -3 9 C-3.33 8.01 -3.66 7.02 -4 6 C-2.1875 2.8125 -2.1875 2.8125 0 0 Z " fill="#467E5E" transform="translate(137,291)"/>
<path d="M0 0 C2.13586678 3.20380017 2.23132175 4.01939967 2.125 7.6875 C2.10695312 8.49574219 2.08890625 9.30398438 2.0703125 10.13671875 C2.03550781 11.05904297 2.03550781 11.05904297 2 12 C2.66 12.33 3.32 12.66 4 13 C4 13.66 4 14.32 4 15 C-2.15234375 14.4140625 -2.15234375 14.4140625 -4 14 C-4.33 13.34 -4.66 12.68 -5 12 C-4.01 11.34 -3.02 10.68 -2 10 C-1.20201782 7.58392583 -1.20201782 7.58392583 -0.8125 4.875 C-0.65394531 3.96492188 -0.49539062 3.05484375 -0.33203125 2.1171875 C-0.22246094 1.41851562 -0.11289063 0.71984375 0 0 Z " fill="#4C8162" transform="translate(176,304)"/>
<path d="M0 0 C3.96064107 1.74268207 7.74436549 4.14674729 11 7 C11 7.66 11 8.32 11 9 C9.576875 8.9690625 9.576875 8.9690625 8.125 8.9375 C5.09333717 8.77448174 5.09333717 8.77448174 3 10 C3 9.34 3 8.68 3 8 C2.34 7.67 1.68 7.34 1 7 C1.33 6.34 1.66 5.68 2 5 C1.10636395 2.39068734 1.10636395 2.39068734 0 0 Z " fill="#467E5D" transform="translate(288,259)"/>
<path d="M0 0 C2.78637633 4.1795645 1.79562512 6.14668677 1 11 C-2.3 10.67 -5.6 10.34 -9 10 C-9 9.34 -9 8.68 -9 8 C-7.329375 7.4121875 -7.329375 7.4121875 -5.625 6.8125 C-2.68039334 5.57517033 -2.14117455 5.26393503 -0.5625 2.3125 C-0.376875 1.549375 -0.19125 0.78625 0 0 Z " fill="#3C7855" transform="translate(319,225)"/>
<path d="M0 0 C0.66 0.33 1.32 0.66 2 1 C-1.3 4.3 -4.6 7.6 -8 11 C-3.71 11.33 0.58 11.66 5 12 C5 12.33 5 12.66 5 13 C-0.61 13 -6.22 13 -12 13 C-10.13488807 9.26977613 -9.06986999 7.93698709 -6 5.375 C-3.92339664 3.6266832 -1.92037235 1.92037235 0 0 Z " fill="#4E8264" transform="translate(96,207)"/>
<path d="M0 0 C1.98 1.65 3.96 3.3 6 5 C4.68775452 8.93673644 3.08089673 11.22719294 0 14 C-0.33 13.01 -0.66 12.02 -1 11 C-0.67 10.34 -0.34 9.68 0 9 C0.04254356 7.00045254 0.04080783 4.99958364 0 3 C0 2.01 0 1.02 0 0 Z " fill="#34744F" transform="translate(301,260)"/>
<path d="M0 0 C0 0.66 0 1.32 0 2 C-3.42094242 4.28062828 -4.68187222 4.21925007 -8.6875 4.125 C-10.17830078 4.09792969 -10.17830078 4.09792969 -11.69921875 4.0703125 C-12.45847656 4.04710937 -13.21773437 4.02390625 -14 4 C-14 3.01 -14 2.02 -14 1 C-9.27616037 0.34843591 -4.78025483 -0.11950637 0 0 Z " fill="#286E45" transform="translate(211,262)"/>
<path d="M0 0 C0.66 0.33 1.32 0.66 2 1 C0.35 4.96 -1.3 8.92 -3 13 C-5.17532857 10.82467143 -5.3662254 9.89725531 -6 7 C-6.33 6.34 -6.66 5.68 -7 5 C-6.030625 4.360625 -5.06125 3.72125 -4.0625 3.0625 C-1.23963731 1.3034741 -1.23963731 1.3034741 0 0 Z " fill="#427C5A" transform="translate(168,296)"/>
<path d="M0 0 C3.36591866 1.44253657 5.51047079 3.33264727 8 6 C7.34 6.66 6.68 7.32 6 8 C2.63060567 7.66306057 0.57089417 6.11180592 -2 4 C-1.34 2.68 -0.68 1.36 0 0 Z " fill="#387652" transform="translate(132,282)"/>
<path d="M0 0 C1.65 0 3.3 0 5 0 C5 2.31 5 4.62 5 7 C2.69 7 0.38 7 -2 7 C-1.34 4.69 -0.68 2.38 0 0 Z " fill="#3F7A58" transform="translate(196,250)"/>
<path d="M0 0 C-0.66 0.66 -1.32 1.32 -2 2 C-2.46162427 4.43252661 -2.46162427 4.43252661 -2.625 7.125 C-2.69976562 8.03507812 -2.77453125 8.94515625 -2.8515625 9.8828125 C-2.90054688 10.58148438 -2.94953125 11.28015625 -3 12 C-3.66 11.67 -4.32 11.34 -5 11 C-5.144375 9.865625 -5.28875 8.73125 -5.4375 7.5625 C-5.623125 6.386875 -5.80875 5.21125 -6 4 C-6.99 3.34 -7.98 2.68 -9 2 C-9 1.34 -9 0.68 -9 0 C-2.25 -1.125 -2.25 -1.125 0 0 Z " fill="#397753" transform="translate(230,295)"/>
<path d="M0 0 C1.65 0 3.3 0 5 0 C5.33 2.31 5.66 4.62 6 7 C4.02 7 2.04 7 0 7 C0 4.69 0 2.38 0 0 Z " fill="#3C7956" transform="translate(202,250)"/>
<path d="M0 0 C0.66 0.33 1.32 0.66 2 1 C-3.61 6.61 -9.22 12.22 -15 18 C-15.66 17.67 -16.32 17.34 -17 17 C-12.0252641 11.16526986 -6.8758329 5.92339116 -1 1 C-0.67 0.67 -0.34 0.34 0 0 Z " fill="#3E7957" transform="translate(115,93)"/>
<path d="M0 0 C6.75 -0.125 6.75 -0.125 9 1 C9 1.66 9 2.32 9 3 C8.21625 3.226875 7.4325 3.45375 6.625 3.6875 C3.78125 4.78125 3.78125 4.78125 2.6875 7.625 C2.460625 8.40875 2.23375 9.1925 2 10 C-0.09350689 6.5980513 -0.17942163 3.94727588 0 0 Z " fill="#4F8365" transform="translate(297,217)"/>
<path d="M0 0 C0.33 0.66 0.66 1.32 1 2 C2.98 2 4.96 2 7 2 C7 2.66 7 3.32 7 4 C5.68 4.33 4.36 4.66 3 5 C2.34 7.64 1.68 10.28 1 13 C0.67 13 0.34 13 0 13 C-0.19466332 11.20909747 -0.38051213 9.41723495 -0.5625 7.625 C-0.66691406 6.62726563 -0.77132813 5.62953125 -0.87890625 4.6015625 C-1 2 -1 2 0 0 Z " fill="#4E8264" transform="translate(299,179)"/>
<path d="M0 0 C2.31 1.98 4.62 3.96 7 6 C6.01 6.66 5.02 7.32 4 8 C3.34 7.34 2.68 6.68 2 6 C-1.08347826 5.83318891 -1.08347826 5.83318891 -4 6 C-2.84826645 3.53199953 -1.95216435 1.95216435 0 0 Z " fill="#417B59" transform="translate(124,258)"/>
<path d="M0 0 C0.66 0.33 1.32 0.66 2 1 C-2.62 5.62 -7.24 10.24 -12 15 C-12 11.11566834 -10.82920314 10.32394504 -8.25 7.5 C-7.55390625 6.7265625 -6.8578125 5.953125 -6.140625 5.15625 C-4.19891408 3.20036601 -2.25069252 1.58156772 0 0 Z " fill="#407A58" transform="translate(146,166)"/>
<path d="M0 0 C0.99 0 1.98 0 3 0 C5.35723489 2.53184488 6 3.47190093 6 7 C3.69 6.67 1.38 6.34 -1 6 C-0.67 4.02 -0.34 2.04 0 0 Z " fill="#417B5A" transform="translate(210,250)"/>
<path d="M0 0 C1.125 4.75 1.125 4.75 0 7 C-0.99 6.67 -1.98 6.34 -3 6 C-2.67 5.34 -2.34 4.68 -2 4 C-4.97 3.505 -4.97 3.505 -8 3 C-8 2.34 -8 1.68 -8 1 C-5.23735711 0.40267181 -2.83967231 0 0 0 Z " fill="#518366" transform="translate(111,173)"/>
<path d="M0 0 C0.99 0 1.98 0 3 0 C3 3.63 3 7.26 3 11 C2.01 11 1.02 11 0 11 C0 7.37 0 3.74 0 0 Z " fill="#2D704A" transform="translate(201,196)"/>
<path d="M0 0 C2 2 2 2 2.125 5.125 C2.08375 6.07375 2.0425 7.0225 2 8 C1.34 8 0.68 8 0 8 C0 7.34 0 6.68 0 6 C-0.66 6 -1.32 6 -2 6 C-2 5.34 -2 4.68 -2 4 C-5.3 4 -8.6 4 -12 4 C-10 2 -10 2 -7.8359375 1.8046875 C-6.61777344 1.83949219 -6.61777344 1.83949219 -5.375 1.875 C-4.14910156 1.90207031 -4.14910156 1.90207031 -2.8984375 1.9296875 C-1.95871094 1.96449219 -1.95871094 1.96449219 -1 2 C-0.67 1.34 -0.34 0.68 0 0 Z " fill="#58876B" transform="translate(107,214)"/>
<path d="M0 0 C1.7290774 -0.02725341 3.45828176 -0.04650987 5.1875 -0.0625 C6.15042969 -0.07410156 7.11335938 -0.08570313 8.10546875 -0.09765625 C10.85576513 -0.00486622 13.32479591 0.37888315 16 1 C12.39494135 3.40337243 11.09753054 3.13664135 6.875 2.75 C5.79992187 2.66234375 4.72484375 2.5746875 3.6171875 2.484375 C2.75351563 2.32453125 1.88984375 2.1646875 1 2 C0.67 1.34 0.34 0.68 0 0 Z " fill="#34744F" transform="translate(90,195)"/>
<path d="M0 0 C4.455 0.99 4.455 0.99 9 2 C8.01 2.66 7.02 3.32 6 4 C5.27617533 6.05925139 5.27617533 6.05925139 5 8 C1.91763635 5.21592961 1.04793663 4.19174654 0 0 Z " fill="#4A8061" transform="translate(95,255)"/>
<path d="M0 0 C0.33 0 0.66 0 1 0 C1 1.65 1 3.3 1 5 C1.78375 5.144375 2.5675 5.28875 3.375 5.4375 C6 6 6 6 8 7 C8 7.66 8 8.32 8 9 C5.69 9 3.38 9 1 9 C0.67 6.03 0.34 3.06 0 0 Z " fill="#427C5A" transform="translate(300,194)"/>
<path d="M0 0 C1.0326802 2.78823655 1.04509293 3.8677274 0.0625 6.75 C-0.288125 7.4925 -0.63875 8.235 -1 9 C-1.66 8.34 -2.32 7.68 -3 7 C-3.66 7.99 -4.32 8.98 -5 10 C-4.56802365 5.2482602 -3.67230705 3.07999946 0 0 Z " fill="#397753" transform="translate(182,155)"/>
<path d="M0 0 C2.36574234 3.5486135 2.10865265 4.5764525 1.625 8.6875 C1.51414063 9.68136719 1.40328125 10.67523438 1.2890625 11.69921875 C1.19367188 12.45847656 1.09828125 13.21773438 1 14 C0.67 12.68 0.34 11.36 0 10 C-0.66 10 -1.32 10 -2 10 C-1.34 6.7 -0.68 3.4 0 0 Z " fill="#55866A" transform="translate(193,301)"/>
<path d="M0 0 C1.65 0 3.3 0 5 0 C5 1.65 5 3.3 5 5 C3.35 5 1.7 5 0 5 C0 3.35 0 1.7 0 0 Z " fill="#30724B" transform="translate(200,181)"/>
<path d="M0 0 C0.66 0.33 1.32 0.66 2 1 C-1.3 4.3 -4.6 7.6 -8 11 C-8 7.0234755 -6.61988497 5.9109833 -4 3 C-1.75 1.1875 -1.75 1.1875 0 0 Z " fill="#427B5A" transform="translate(182,140)"/>
<path d="M0 0 C0.66 0 1.32 0 2 0 C1.67 2.31 1.34 4.62 1 7 C-0.32 7 -1.64 7 -3 7 C-1.125 1.125 -1.125 1.125 0 0 Z " fill="#4B8062" transform="translate(192,250)"/>
<path d="M0 0 C1.48117801 0.28127421 2.95993249 0.57533732 4.4375 0.875 C5.67306641 1.11863281 5.67306641 1.11863281 6.93359375 1.3671875 C7.61550781 1.57601562 8.29742187 1.78484375 9 2 C9.33 2.66 9.66 3.32 10 4 C7.36 4 4.72 4 2 4 C2 3.34 2 2.68 2 2 C1.34 2 0.68 2 0 2 C0 1.34 0 0.68 0 0 Z " fill="#377551" transform="translate(91,156)"/>
<path d="M0 0 C0.66 0.33 1.32 0.66 2 1 C-0.625 4.875 -0.625 4.875 -4 6 C-4.33 6.66 -4.66 7.32 -5 8 C-5 7.34 -5 6.68 -5 6 C-5.66 5.67 -6.32 5.34 -7 5 C-4.69 3.35 -2.38 1.7 0 0 Z " fill="#5C8A6F" transform="translate(263,277)"/>
<path d="M0 0 C2.50037734 2.17424117 3.43628586 3.73045798 4 7 C1 7 1 7 -0.6875 5.5 C-1.120625 5.005 -1.55375 4.51 -2 4 C-1.34 4 -0.68 4 0 4 C0 2.68 0 1.36 0 0 Z " fill="#3F7A58" transform="translate(115,243)"/>
<path d="M0 0 C0 0.33 0 0.66 0 1 C-1.36125 1.37125 -1.36125 1.37125 -2.75 1.75 C-6.10351489 3.03981342 -7.67708236 4.31971042 -10 7 C-10.66 6.67 -11.32 6.34 -12 6 C-7.99402755 0.79223581 -6.57420945 -0.1429176 0 0 Z " fill="#447C5B" transform="translate(317,218)"/>
<path d="M0 0 C2.0625 0.4375 2.0625 0.4375 4 1 C3.01 1.33 2.02 1.66 1 2 C2.32 2.66 3.64 3.32 5 4 C2.36 4.33 -0.28 4.66 -3 5 C-1.125 1.125 -1.125 1.125 0 0 Z " fill="#417B59" transform="translate(163,169)"/>
<path d="M0 0 C0.33 0.99 0.66 1.98 1 3 C1.66 3 2.32 3 3 3 C1.84826645 5.46800047 0.95216435 7.04783565 -1 9 C-2.25541557 5.23375329 -1.37061958 3.62811066 0 0 Z " fill="#4D8163" transform="translate(302,265)"/>
<path d="M0 0 C2 3 2 3 1.75 5.0625 C1 7 1 7 -1 9 C-1 8.34 -1 7.68 -1 7 C-1.66 6.67 -2.32 6.34 -3 6 C-2.34 5.34 -1.68 4.68 -1 4 C-0.3574765 1.93125966 -0.3574765 1.93125966 0 0 Z " fill="#497F60" transform="translate(319,225)"/>
<path d="M0 0 C0.99 0.33 1.98 0.66 3 1 C-0.465 3.97 -0.465 3.97 -4 7 C-3.04065919 3.16263678 -2.76390737 2.40339772 0 0 Z " fill="#387652" transform="translate(249,195)"/>
<path d="M0 0 C2.66666667 1.33333333 5.33333333 2.66666667 8 4 C5.125 4.625 5.125 4.625 2 5 C1.34 4.34 0.68 3.68 0 3 C0 2.01 0 1.02 0 0 Z " fill="#4A8060" transform="translate(86,191)"/>
<path d="M0 0 C1.32 0 2.64 0 4 0 C3.34 1.65 2.68 3.3 2 5 C1.01 5 0.02 5 -1 5 C-1 2 -1 2 0 0 Z " fill="#427B5A" transform="translate(223,249)"/>
<path d="M0 0 C0 0.33 0 0.66 0 1 C-1.36125 1.4021875 -1.36125 1.4021875 -2.75 1.8125 C-5.71471963 2.89576294 -7.6169754 3.98359457 -10 6 C-7.83322503 -0.036016 -6.28508493 -0.13663228 0 0 Z " fill="#58876C" transform="translate(303,234)"/>
</svg>
